<svg width="120" height="114" viewBox="0 0 120 114" fill="none" xmlns="http://www.w3.org/2000/svg">
<path fill-rule="evenodd" clip-rule="evenodd" d="M29.1731 64.0869C15.1658 66.9326 6 71.6634 6 77.0224C6 79.7819 7.12493 85.83 12.6894 84.6235C19.4713 81.0386 30.9041 78.3036 44.6156 77.121C43.863 73.3038 41.4802 70.5724 38.5896 67.9098C36.4783 65.9651 34.7929 64.5049 29.1731 64.0869Z" fill="#306694"/>
<path fill-rule="evenodd" clip-rule="evenodd" d="M90.8206 64.0869C86.9955 69.7292 76.1481 66.6672 75.3779 77.1212C89.0897 78.3038 100.522 81.0388 107.304 84.6237C113.103 85.0033 114 79.7821 114 77.0224C114 71.6634 104.828 66.9326 90.8206 64.0869Z" fill="#306694"/>
<path fill-rule="evenodd" clip-rule="evenodd" d="M107.304 84.6241C103.768 86.4967 98.9756 88.129 93.2531 89.4348C92.1874 89.6812 92.0642 90.285 92.0642 91.3075V104.021C92.0642 104.502 92.1566 104.81 92.7109 104.687C105.647 101.81 113.999 97.264 113.999 92.1513V77.0227C113.999 79.7824 111.572 82.3695 107.304 84.6241Z" fill="#83BCDC"/>
<path fill-rule="evenodd" clip-rule="evenodd" d="M59.9967 92.7796C39.6263 92.7796 21.8861 89.484 12.6894 84.6238C8.42704 82.3695 6 79.7824 6 77.0227V92.1513C6 100.855 30.1772 107.908 59.9967 107.908V113.754C59.9967 113.846 60.0028 113.926 60.0153 114H60.9331L78.7718 101.114C79.517 100.738 79.517 99.9435 78.7718 99.5677L60.7175 86.5335C60.1939 86.2685 59.9967 86.3241 59.9967 86.9339V92.7796Z" fill="#83BCDC"/>
<g filter="url(#filter0_d_13511_23541)">
<path fill-rule="evenodd" clip-rule="evenodd" d="M59.9968 6C39.4416 6 22.7793 22.6623 22.7793 43.2176C22.7793 50.9482 25.1384 58.1305 29.1732 64.0872C33.0047 69.7295 38.3452 74.2694 44.6159 77.1214C49.3036 79.2527 54.5148 80.4355 59.997 80.4355C65.4854 80.4355 70.6905 79.2529 75.3781 77.1214C81.6489 74.2694 86.9955 69.7297 90.8208 64.0872C94.8617 58.1307 97.2147 50.9482 97.2147 43.2176C97.2143 22.6623 80.5522 6 59.9968 6Z" fill="white"/>
</g>
<path fill-rule="evenodd" clip-rule="evenodd" d="M108.789 83.7862V96.0012C108.789 97.3132 108.234 98.5882 107.199 99.808C111.53 97.5412 114 94.9294 114 92.1513V77.0227C114 79.4436 112.127 81.7349 108.789 83.7862Z" fill="#69B1DA"/>
<path fill-rule="evenodd" clip-rule="evenodd" d="M59.9968 6C58.3335 6 56.6888 6.11083 55.0813 6.32024C73.456 8.59929 87.6727 24.2639 87.6727 43.2546C87.6727 62.1467 73.6037 77.7496 55.3707 80.1518C56.8861 80.3428 58.432 80.4351 59.9968 80.4351C65.4851 80.4351 70.6902 79.2525 75.3779 77.121C81.6486 74.269 86.9952 69.7293 90.8206 64.0867C94.8615 58.1303 97.2145 50.9478 97.2145 43.2172C97.2143 22.6623 80.5521 6 59.9968 6Z" fill="#F5FAFF"/>
<path d="M43.6842 41.7128C45.2626 41.9703 46.4721 42.5627 47.3128 43.4898C48.1534 44.3998 48.5738 45.533 48.5738 46.8894C48.5738 47.9368 48.2993 48.9068 47.7503 49.7997C47.2013 50.6753 46.3606 51.3793 45.2283 51.9115C44.1131 52.4438 42.7406 52.7099 41.1108 52.7099C39.8412 52.7099 38.5888 52.5468 37.3536 52.2206C36.1355 51.8772 35.0976 51.3964 34.2397 50.7783L35.861 47.5848C36.5473 48.0999 37.3364 48.5034 38.2286 48.7952C39.1378 49.07 40.0643 49.2073 41.0079 49.2073C42.0544 49.2073 42.8779 49.0099 43.4784 48.615C44.0788 48.2029 44.3791 47.6277 44.3791 46.8894C44.3791 45.4128 43.2553 44.6745 41.0079 44.6745H39.1035V41.9188L42.8093 37.7208H35.1404V34.3728H47.7503V37.077L43.6842 41.7128Z" fill="#474748"/>
<path d="M59.1711 41.0947C60.3205 41.0947 61.3671 41.3265 62.3106 41.79C63.2542 42.2536 64.0005 42.9147 64.5495 43.7731C65.0985 44.6144 65.373 45.5931 65.373 46.7091C65.373 47.911 65.0728 48.9669 64.4723 49.8769C63.8719 50.7869 63.0484 51.4909 62.0018 51.9888C60.9725 52.4695 59.823 52.7099 58.5534 52.7099C56.0315 52.7099 54.0585 51.9373 52.6346 50.392C51.2106 48.8468 50.4986 46.6405 50.4986 43.7731C50.4986 41.7299 50.8846 39.9786 51.6566 38.5192C52.4287 37.0598 53.5009 35.9524 54.8734 35.1969C56.2631 34.4415 57.8672 34.0637 59.6858 34.0637C60.6465 34.0637 61.5644 34.1753 62.4393 34.3985C63.3314 34.6046 64.0863 34.905 64.7039 35.2999L63.1599 38.3647C62.2678 37.7638 61.144 37.4633 59.7887 37.4633C58.2618 37.4633 57.0523 37.9097 56.1602 38.8025C55.268 39.6954 54.7877 40.9917 54.719 42.6914C55.7827 41.6269 57.2667 41.0947 59.1711 41.0947ZM58.3218 49.5936C59.214 49.5936 59.9345 49.3533 60.4835 48.8725C61.0497 48.3918 61.3327 47.7393 61.3327 46.9152C61.3327 46.091 61.0497 45.4386 60.4835 44.9578C59.9345 44.4599 59.1968 44.211 58.2704 44.211C57.3611 44.211 56.6148 44.4685 56.0315 44.9836C55.4482 45.4815 55.1565 46.1254 55.1565 46.9152C55.1565 47.705 55.4396 48.3488 56.0057 48.8468C56.5719 49.3447 57.3439 49.5936 58.3218 49.5936Z" fill="#474748"/>
<path d="M74.6044 52.7099C73.1118 52.7099 71.7822 52.3408 70.6156 51.6025C69.449 50.8642 68.5311 49.7997 67.862 48.4089C67.2101 47.001 66.8841 45.327 66.8841 43.3868C66.8841 41.4467 67.2101 39.7812 67.862 38.3905C68.5311 36.9826 69.449 35.9095 70.6156 35.1712C71.7822 34.4329 73.1118 34.0637 74.6044 34.0637C76.097 34.0637 77.4266 34.4329 78.5932 35.1712C79.7599 35.9095 80.6691 36.9826 81.3211 38.3905C81.9902 39.7812 82.3247 41.4467 82.3247 43.3868C82.3247 45.327 81.9902 47.001 81.3211 48.4089C80.6691 49.7997 79.7599 50.8642 78.5932 51.6025C77.4266 52.3408 76.097 52.7099 74.6044 52.7099ZM74.6044 49.1816C75.7024 49.1816 76.5602 48.7094 77.1778 47.7651C77.8126 46.8207 78.13 45.3613 78.13 43.3868C78.13 41.4123 77.8126 39.9529 77.1778 39.0086C76.5602 38.0642 75.7024 37.5921 74.6044 37.5921C73.5236 37.5921 72.6658 38.0642 72.031 39.0086C71.4134 39.9529 71.1045 41.4123 71.1045 43.3868C71.1045 45.3613 71.4134 46.8207 72.031 47.7651C72.6658 48.7094 73.5236 49.1816 74.6044 49.1816Z" fill="#474748"/>
<path d="M82.9873 31.4798C82.3496 32.1179 82.3496 33.1527 82.9873 33.7911C83.3062 34.1103 83.7243 34.2699 84.1422 34.2699C84.56 34.2699 84.9781 34.1103 85.297 33.7911L85.3032 33.785C85.9408 33.1468 85.9377 32.115 85.3 31.4768C84.6621 30.8382 83.6254 30.8416 82.9873 31.4798Z" fill="#474748"/>
<defs>
<filter id="filter0_d_13511_23541" x="-1.2207" y="-18" width="122.436" height="122.436" filterUnits="userSpaceOnUse" color-interpolation-filters="sRGB">
<feFlood flood-opacity="0" result="BackgroundImageFix"/>
<feColorMatrix in="SourceAlpha" type="matrix" values="0 0 0 0 0 0 0 0 0 0 0 0 0 0 0 0 0 0 127 0" result="hardAlpha"/>
<feOffset/>
<feGaussianBlur stdDeviation="12"/>
<feColorMatrix type="matrix" values="0 0 0 0 0.702778 0 0 0 0 0.839667 0 0 0 0 0.916667 0 0 0 0.25 0"/>
<feBlend mode="normal" in2="BackgroundImageFix" result="effect1_dropShadow_13511_23541"/>
<feBlend mode="normal" in="SourceGraphic" in2="effect1_dropShadow_13511_23541" result="shape"/>
</filter>
</defs>
</svg>
