<svg width="97" height="95" viewBox="0 0 97 95" fill="none" xmlns="http://www.w3.org/2000/svg">
<path d="M64.5536 6.55542H21.5093C20.8717 6.55542 20.3547 7.07555 20.3547 7.71715V27.9333C20.3547 28.5749 20.8717 29.0951 21.5093 29.0951H64.5536C65.1912 29.0951 65.7082 28.5749 65.7082 27.9333V7.71715C65.7082 7.07555 65.1912 6.55542 64.5536 6.55542Z" fill="#83BCDC"/>
<g opacity="0.5">
<path opacity="0.5" d="M65.7087 7.71667C65.7087 7.40855 65.5871 7.11306 65.3705 6.8952C65.154 6.67733 64.8603 6.55493 64.5541 6.55493H59.245L58.6889 11.1943L58.3547 14.0523L56.8585 26.8815C56.8585 26.9568 56.8585 27.0321 56.8435 27.1073C56.8429 27.3673 56.8931 27.6249 56.9914 27.8653C57.0896 28.1058 57.234 28.3244 57.4163 28.5087C57.5985 28.693 57.815 28.8394 58.0535 28.9395C58.292 29.0396 58.5477 29.0914 58.8061 29.0921H64.5417C64.8472 29.0907 65.1399 28.9678 65.3557 28.7502C65.5716 28.5325 65.6931 28.2378 65.6938 27.9303V7.71667H65.7087Z" fill="#A5B3C9"/>
</g>
<path d="M62.3763 9.44556H23.6836C23.4316 9.44556 23.2273 9.65114 23.2273 9.90473V25.745C23.2273 25.9986 23.4316 26.2041 23.6836 26.2041H62.3763C62.6284 26.2041 62.8327 25.9986 62.8327 25.745V9.90473C62.8327 9.65114 62.6284 9.44556 62.3763 9.44556Z" fill="white"/>
<path d="M62.8432 9.89159C62.8416 9.83095 62.8281 9.77125 62.8033 9.71596C62.7785 9.66066 62.743 9.61089 62.6989 9.56955C62.6548 9.5282 62.6029 9.49611 62.5464 9.47515C62.4898 9.45419 62.4297 9.44478 62.3694 9.44747H58.8932L58.6887 11.2039L58.3545 14.0517L56.9331 26.2086H62.3694C62.4311 26.2106 62.4926 26.2001 62.5502 26.1776C62.6078 26.1552 62.6603 26.1212 62.7045 26.0779C62.7487 26.0346 62.7838 25.9827 62.8077 25.9254C62.8315 25.8681 62.8436 25.8065 62.8432 25.7444V9.89159Z" fill="#CED8E8"/>
<path d="M87.2644 83.9045C87.0201 83.8753 86.7839 83.7979 86.5693 83.6768C86.3547 83.5556 86.1659 83.3931 86.0138 83.1986C85.8616 83.004 85.7491 82.7812 85.6825 82.5428C85.616 82.3044 85.5968 82.0552 85.6261 81.8094L87.055 69.5798L87.3642 66.8549L87.8804 62.4363H94.7232L95.2444 66.8574L95.5536 69.5848L96.9875 81.8119C96.9955 81.8836 96.9996 81.9556 97 82.0277C97.0006 82.2755 96.9528 82.521 96.8591 82.7501C96.7655 82.9793 96.6279 83.1877 96.4542 83.3634C96.2806 83.5391 96.0742 83.6786 95.8469 83.774C95.6197 83.8695 95.3759 83.9189 95.1297 83.9196H87.4764C87.4055 83.9184 87.3348 83.9134 87.2644 83.9045Z" fill="#D2E2EB"/>
<g opacity="0.5">
<path opacity="0.8" d="M94.9868 82.0261C94.9868 82.5268 94.7893 83.007 94.4377 83.3613C94.0861 83.7155 93.6091 83.9149 93.1116 83.9155H95.1265C95.1981 83.9152 95.2697 83.911 95.341 83.903C95.5853 83.8741 95.8215 83.797 96.0362 83.6761C96.2509 83.5553 96.4399 83.3931 96.5923 83.1987C96.7446 83.0044 96.8575 82.7818 96.9243 82.5435C96.9912 82.3053 97.0107 82.0562 96.9818 81.8104L95.5504 69.5808L95.2412 66.8559L94.7225 62.4373H92.7051L93.2337 66.8584L93.543 69.5858L94.9744 81.8129C94.9835 81.8836 94.9877 81.9549 94.9868 82.0261Z" fill="white"/>
</g>
<path d="M91.8127 59.8938C91.5634 58.9604 91.6207 56.9632 93.511 56.1602C94.3489 55.8014 94.9573 55.0135 94.9099 54.4214C94.8626 53.8292 94.1843 53.3475 93.0097 53.069C91.1943 52.6424 90.1469 51.6312 90.2068 50.3616C90.2716 48.9891 91.8028 47.3908 95.0521 46.9391C95.1273 46.9264 95.2043 46.9289 95.2786 46.9465C95.3529 46.9641 95.4229 46.9965 95.4846 47.0416C95.5463 47.0868 95.5984 47.1439 95.6379 47.2096C95.6773 47.2753 95.7034 47.3482 95.7145 47.4242C95.7256 47.5001 95.7216 47.5775 95.7026 47.6519C95.6836 47.7262 95.65 47.796 95.6039 47.8572C95.5578 47.9183 95.5 47.9696 95.4339 48.008C95.3679 48.0464 95.2949 48.0711 95.2192 48.0808C92.7254 48.4195 91.3888 49.521 91.3439 50.4293C91.3115 51.0993 92.0272 51.6839 93.2666 51.9649C95.5583 52.5069 95.9947 53.6787 96.0496 54.3336C96.1568 55.6032 95.077 56.7524 93.9549 57.2316C92.5259 57.8363 92.8726 59.4397 92.9199 59.6228C92.9556 59.7698 92.9325 59.9251 92.8555 60.055C92.7786 60.185 92.6539 60.2794 92.5085 60.3179C92.4621 60.3299 92.4143 60.3358 92.3663 60.3354C92.2381 60.3354 92.1136 60.2918 92.0131 60.2117C91.9126 60.1315 91.842 60.0195 91.8127 59.8938Z" fill="#306694"/>
<path d="M89.7747 59.9166L88.0889 53.7868C88.064 53.713 88.0543 53.6349 88.0603 53.5572C88.0663 53.4796 88.088 53.4039 88.124 53.335C88.16 53.266 88.2095 53.2051 88.2696 53.1559C88.3297 53.1068 88.3991 53.0705 88.4736 53.0492C88.5481 53.0279 88.6261 53.0221 88.7029 53.0321C88.7797 53.0421 88.8536 53.0677 88.9203 53.1073C88.987 53.147 89.0449 53.1999 89.0906 53.2627C89.1363 53.3256 89.1688 53.3972 89.1862 53.4731L90.8744 59.608C90.8945 59.6805 90.9002 59.7563 90.8911 59.831C90.882 59.9057 90.8584 59.9778 90.8216 60.0433C90.7848 60.1088 90.7354 60.1663 90.6765 60.2126C90.6175 60.2589 90.55 60.2931 90.4779 60.3131C90.4277 60.3273 90.3756 60.3341 90.3233 60.3331C90.1992 60.3335 90.0785 60.2929 89.9794 60.2177C89.8803 60.1425 89.8085 60.0368 89.7747 59.9166Z" fill="#306694"/>
<path d="M95.7601 61.1023C95.7594 61.4573 95.6188 61.7974 95.3692 62.0482C95.1195 62.2989 94.7812 62.4397 94.4284 62.4397H88.0819C87.7292 62.4397 87.3908 62.2989 87.1412 62.0482C86.8915 61.7974 86.7509 61.4573 86.7502 61.1023C86.7502 60.747 86.8905 60.4062 87.1403 60.1549C87.39 59.9036 87.7287 59.7625 88.0819 59.7625H94.4334C94.7857 59.7638 95.1232 59.9055 95.3718 60.1567C95.6205 60.4078 95.7601 60.7478 95.7601 61.1023Z" fill="#D2E2EB"/>
<path d="M87.3637 66.8586H95.2414L95.5606 69.5861H87.042L87.3637 66.8586Z" fill="#E97522"/>
<path d="M93.5423 69.5861H95.5598L95.2406 66.8586H93.2231L93.5423 69.5861Z" fill="#EE7E3B"/>
<g opacity="0.5">
<path opacity="0.8" d="M86.7556 61.192C86.7759 61.5315 86.9243 61.8504 87.1704 62.0836C87.4165 62.3167 87.7418 62.4466 88.0798 62.4466H94.4413C94.6158 62.4453 94.7884 62.4094 94.9492 62.341C95.1099 62.2726 95.2557 62.1729 95.3782 62.0478C95.5007 61.9227 95.5975 61.7745 95.6631 61.6118C95.7287 61.449 95.7618 61.2748 95.7605 61.0992C95.7591 60.7449 95.6182 60.4057 95.3685 60.1559C95.1189 59.9061 94.7809 59.7662 94.4288 59.7668H94.3241V61.1845L86.7556 61.192Z" fill="white"/>
</g>
<path d="M22.1612 80.0416V85.4539C22.1642 85.5656 22.145 85.6768 22.1046 85.7809C22.0642 85.8851 22.0036 85.98 21.9262 86.0602C21.8488 86.1404 21.7563 86.2042 21.654 86.2479C21.5518 86.2915 21.4419 86.3142 21.3308 86.3145H13.0167C12.907 86.3138 12.7985 86.2914 12.6974 86.2486C12.5963 86.2057 12.5046 86.1433 12.4274 86.0647C12.3503 85.9862 12.2893 85.8932 12.248 85.791C12.2066 85.6887 12.1856 85.5793 12.1863 85.4689V80.0416C12.1856 79.9312 12.2066 79.8218 12.248 79.7196C12.2893 79.6173 12.3503 79.5243 12.4274 79.4458C12.5046 79.3673 12.5963 79.3048 12.6974 79.2619C12.7985 79.2191 12.907 79.1967 13.0167 79.196H21.3308C21.4405 79.1967 21.549 79.2191 21.6501 79.2619C21.7512 79.3048 21.8429 79.3673 21.9201 79.4458C21.9972 79.5243 22.0582 79.6173 22.0995 79.7196C22.1409 79.8218 22.1619 79.9312 22.1612 80.0416ZM76.1953 79.196H67.8837C67.774 79.1967 67.6655 79.2191 67.5644 79.2619C67.4633 79.3048 67.3716 79.3673 67.2945 79.4458C67.2174 79.5243 67.1564 79.6173 67.115 79.7196C67.0736 79.8218 67.0527 79.9312 67.0533 80.0416V85.4539C67.0523 85.5643 67.0731 85.6739 67.1143 85.7763C67.1556 85.8787 67.2165 85.9718 67.2937 86.0504C67.3709 86.129 67.4628 86.1915 67.564 86.2342C67.6653 86.2769 67.7739 86.2991 67.8837 86.2994H76.1953C76.3052 86.2991 76.414 86.277 76.5154 86.2343C76.6168 86.1916 76.7088 86.1291 76.7862 86.0506C76.8636 85.972 76.9248 85.8789 76.9663 85.7765C77.0078 85.6741 77.0289 85.5644 77.0282 85.4539V80.0416C77.0285 79.9312 77.0073 79.8219 76.9656 79.7198C76.9239 79.6177 76.8626 79.5248 76.7853 79.4465C76.708 79.3682 76.6161 79.306 76.5148 79.2635C76.4136 79.221 76.305 79.1989 76.1953 79.1986V79.196Z" fill="#306694"/>
<path d="M79.6876 44.5196V63.1274C79.6896 63.5735 79.5156 64.0022 79.2037 64.3193C78.8919 64.6363 78.4677 64.8159 78.0243 64.8186H46.4338C46.2144 64.8173 45.9974 64.7725 45.7952 64.6868C45.5929 64.6011 45.4095 64.4761 45.2553 64.3191C45.101 64.1621 44.9791 63.976 44.8963 63.7715C44.8136 63.5671 44.7716 63.3482 44.773 63.1274C44.7749 63.5735 44.6009 64.0022 44.289 64.3193C43.9772 64.6363 43.553 64.8159 43.1096 64.8186H11.5191C11.0757 64.8159 10.6516 64.6363 10.3397 64.3193C10.0278 64.0022 9.85378 63.5735 9.85577 63.1274V44.5196C9.85315 44.0775 9.93713 43.6393 10.1029 43.2298C10.2687 42.8204 10.5131 42.4479 10.822 42.1336C11.1309 41.8192 11.4984 41.5692 11.9034 41.3978C12.3084 41.2265 12.743 41.1371 13.1824 41.1348H41.4463C41.8857 41.1371 42.3203 41.2265 42.7253 41.3978C43.1303 41.5692 43.4978 41.8192 43.8067 42.1336C44.1157 42.4479 44.36 42.8204 44.5258 43.2298C44.6916 43.6393 44.7756 44.0775 44.773 44.5196C44.7703 44.0777 44.8542 43.6397 45.0199 43.2304C45.1855 42.8212 45.4296 42.4488 45.7383 42.1345C46.047 41.8201 46.4142 41.5701 46.8189 41.3986C47.2236 41.227 47.6579 41.1374 48.0971 41.1348H76.361C76.8004 41.1371 77.235 41.2265 77.64 41.3978C78.045 41.5692 78.4125 41.8192 78.7214 42.1336C79.0304 42.4479 79.2747 42.8204 79.4405 43.2298C79.6063 43.6393 79.6903 44.0775 79.6876 44.5196Z" fill="#6C6B6B"/>
<path d="M79.6876 44.5204V63.1283C79.6877 63.456 79.5936 63.7768 79.4166 64.0519C79.2396 64.3271 78.9873 64.5448 78.6901 64.6789V67.7476H47.2691V67.7928H42.2817V67.7476H10.5215V64.4857C10.3144 64.3278 10.1465 64.1237 10.0309 63.8895C9.9154 63.6553 9.85542 63.3973 9.85571 63.1358V60.722H27.4315C34.778 60.722 40.7331 54.6624 40.7331 47.1877V41.1406H41.4388C41.8782 41.1429 42.3128 41.2323 42.7178 41.4037C43.1228 41.5751 43.4903 41.8251 43.7992 42.1394C44.1081 42.4538 44.3525 42.8263 44.5183 43.2357C44.6841 43.6451 44.768 44.0834 44.7654 44.5255V57.3346C44.7621 57.7774 44.8458 58.2165 45.0116 58.6267C45.1775 59.0369 45.4222 59.4101 45.7318 59.7248C46.0413 60.0395 46.4096 60.2897 46.8156 60.4608C47.2215 60.6319 47.657 60.7207 48.097 60.722H62.3437C69.6902 60.722 75.6453 54.6624 75.6453 47.1877V41.1406H76.351C76.7908 41.1416 77.226 41.2299 77.6319 41.4003C78.0377 41.5708 78.4062 41.8202 78.7161 42.1341C79.026 42.4481 79.2714 42.8204 79.4381 43.2299C79.6048 43.6394 79.6896 44.0779 79.6876 44.5204Z" fill="#30302F" fill-opacity="0.49"/>
<path d="M87.334 57.2097V79.2024C87.3353 79.4231 87.2934 79.642 87.2106 79.8465C87.1279 80.051 87.0059 80.237 86.8517 80.3941C86.6975 80.5511 86.514 80.676 86.3118 80.7617C86.1096 80.8474 85.8926 80.8922 85.6732 80.8935H3.87887C3.65946 80.8922 3.44245 80.8474 3.24024 80.7617C3.03803 80.676 2.85457 80.5511 2.70035 80.3941C2.54613 80.237 2.42416 80.051 2.3414 79.8465C2.25865 79.642 2.21673 79.4231 2.21805 79.2024V57.2097C2.21673 56.9889 2.25865 56.7701 2.3414 56.5656C2.42416 56.3611 2.54613 56.1751 2.70035 56.018C2.85457 55.861 3.03803 55.7361 3.24024 55.6504C3.44245 55.5647 3.65946 55.5199 3.87887 55.5186H10.5222C10.9655 55.5212 11.3897 55.7008 11.7016 56.0179C12.0134 56.335 12.1875 56.7636 12.1855 57.2097V68.9676H77.3591V57.2097C77.3571 56.7636 77.5311 56.335 77.843 56.0179C78.1549 55.7008 78.579 55.5212 79.0224 55.5186H85.6732C85.8926 55.5199 86.1096 55.5647 86.3118 55.6504C86.514 55.7361 86.6975 55.861 86.8517 56.018C87.0059 56.1751 87.1279 56.3611 87.2106 56.5656C87.2934 56.7701 87.3353 56.9889 87.334 57.2097Z" fill="#8C8C8C"/>
<path d="M87.3333 57.2097V79.2024C87.3346 79.4231 87.2927 79.642 87.2099 79.8465C87.1272 80.051 87.0052 80.237 86.851 80.3941C86.6968 80.5511 86.5133 80.676 86.3111 80.7617C86.1089 80.8474 85.8919 80.8922 85.6725 80.8935H82.0142C82.4575 80.8909 82.8817 80.7113 83.1936 80.3942C83.5054 80.0771 83.6795 79.6485 83.6775 79.2024V57.2097C83.6795 56.7636 83.5054 56.335 83.1936 56.0179C82.8817 55.7008 82.4575 55.5212 82.0142 55.5186H85.6725C85.8919 55.5199 86.1089 55.5647 86.3111 55.6504C86.5133 55.7361 86.6968 55.861 86.851 56.018C87.0052 56.1751 87.1272 56.3611 87.2099 56.5656C87.2927 56.7701 87.3346 56.9889 87.3333 57.2097Z" fill="#858585"/>
<path d="M79.7928 66.5986V71.6746C79.7948 72.1207 79.6208 72.5494 79.3089 72.8665C78.9971 73.1836 78.5729 73.3631 78.1295 73.3658H46.539C46.3195 73.3645 46.1025 73.3197 45.9003 73.234C45.6981 73.1483 45.5147 73.0234 45.3604 72.8663C45.2062 72.7093 45.0843 72.5232 45.0015 72.3187C44.9187 72.1143 44.8768 71.8954 44.8781 71.6746C44.8801 72.1207 44.7061 72.5494 44.3942 72.8665C44.0824 73.1836 43.6582 73.3631 43.2148 73.3658H11.6243C11.1809 73.3631 10.7567 73.1836 10.4449 72.8665C10.133 72.5494 9.95896 72.1207 9.96095 71.6746V66.5986C9.95896 66.1525 10.133 65.7239 10.4449 65.4068C10.7567 65.0897 11.1809 64.9101 11.6243 64.9075H43.2148C43.6582 64.9101 44.0824 65.0897 44.3942 65.4068C44.7061 65.7239 44.8801 66.1525 44.8781 66.5986C44.8768 66.3779 44.9187 66.159 45.0015 65.9545C45.0843 65.7501 45.2062 65.564 45.3604 65.407C45.5147 65.2499 45.6981 65.125 45.9003 65.0393C46.1025 64.9536 46.3195 64.9088 46.539 64.9075H78.1295C78.5729 64.9101 78.9971 65.0897 79.3089 65.4068C79.6208 65.7239 79.7948 66.1525 79.7928 66.5986Z" fill="#30302F" fill-opacity="0.49"/>
<path d="M42.4121 66.5774V71.5896C42.4134 71.8078 42.3712 72.0241 42.2877 72.2262C42.2043 72.4283 42.0813 72.6121 41.9258 72.7672C41.7703 72.9223 41.5854 73.0456 41.3816 73.1301C41.1777 73.2146 40.9591 73.2586 40.738 73.2595H13.2952C12.849 73.2569 12.422 73.0796 12.1082 72.7665C11.7943 72.4534 11.6191 72.0301 11.6211 71.5896V66.5774C11.6191 66.1369 11.7943 65.7136 12.1082 65.4005C12.422 65.0874 12.849 64.9101 13.2952 64.9075H40.738C40.9591 64.9084 41.1777 64.9524 41.3816 65.0369C41.5854 65.1214 41.7703 65.2447 41.9258 65.3998C42.0813 65.5549 42.2043 65.7387 42.2877 65.9408C42.3712 66.1429 42.4134 66.3592 42.4121 66.5774ZM75.8786 64.9075H48.4358C48.2149 64.9088 47.9965 64.953 47.793 65.0376C47.5895 65.1222 47.4048 65.2456 47.2496 65.4007C47.0944 65.5557 46.9716 65.7395 46.8884 65.9414C46.8051 66.1433 46.7629 66.3594 46.7642 66.5774V71.5896C46.7642 72.0282 46.94 72.4489 47.2532 72.7599C47.5664 73.071 47.9915 73.247 48.4358 73.2496H75.8786C76.0996 73.2486 76.3183 73.2047 76.5221 73.1202C76.726 73.0357 76.9109 72.9124 77.0664 72.7573C77.2219 72.6022 77.3448 72.4183 77.4283 72.2163C77.5117 72.0142 77.554 71.7979 77.5527 71.5797V66.5774C77.554 66.3592 77.5117 66.1429 77.4283 65.9408C77.3448 65.7387 77.2219 65.5549 77.0664 65.3998C76.9109 65.2447 76.726 65.1214 76.5221 65.0369C76.3183 64.9524 76.0996 64.9084 75.8786 64.9075Z" fill="#6E6E6E"/>
<path d="M15.3331 18.3835C15.3325 18.4678 15.3409 18.5519 15.358 18.6345L16.7695 25.6174C16.7856 25.7034 16.8107 25.7875 16.8443 25.8683L12.0588 26.8469L10.5476 19.3621L15.3331 18.3835Z" fill="#30302F"/>
<path d="M11.6591 33.1758L5.20282 34.4981C4.99076 34.5417 4.77224 34.5428 4.55977 34.5013C4.3473 34.4597 4.14505 34.3765 3.96461 34.2562C3.78416 34.136 3.62907 33.9811 3.5082 33.8004C3.38733 33.6198 3.30306 33.4169 3.26021 33.2034L0.033324 17.2628C-0.010008 17.0493 -0.0110913 16.8293 0.0301359 16.6153C0.0713632 16.4014 0.154093 16.1977 0.273596 16.0159C0.393098 15.8342 0.547031 15.6779 0.726595 15.556C0.906159 15.4342 1.10783 15.3491 1.32009 15.3057L7.77635 13.9834C7.98912 13.9387 8.20857 13.9369 8.42204 13.9781C8.63551 14.0192 8.83876 14.1025 9.02007 14.2231C9.20137 14.3437 9.35714 14.4992 9.47838 14.6808C9.59962 14.8623 9.68393 15.0661 9.72645 15.2806L12.9434 31.2212C13.0302 31.6517 12.9437 32.0993 12.703 32.4657C12.4622 32.8322 12.0868 33.0876 11.6591 33.1758Z" fill="#6E6E6E"/>
<path d="M16.3851 17.0631L22.3875 15.8361C22.5574 15.801 22.7325 15.8001 22.9027 15.8334C23.0729 15.8667 23.2348 15.9335 23.3793 16.0301C23.5237 16.1266 23.6477 16.251 23.7441 16.396C23.8405 16.541 23.9075 16.7037 23.9411 16.8749L25.3551 23.8578C25.4242 24.2028 25.3547 24.5613 25.1616 24.8548C24.9686 25.1483 24.6678 25.3528 24.3252 25.4236L18.3253 26.653C17.9824 26.7226 17.6261 26.6526 17.3344 26.4584C17.0427 26.2642 16.8395 25.9615 16.7692 25.6168L15.3577 18.6338C15.3224 18.4628 15.3209 18.2864 15.3534 18.1148C15.386 17.9432 15.4519 17.7797 15.5473 17.6338C15.6428 17.4879 15.7659 17.3624 15.9097 17.2644C16.0535 17.1665 16.215 17.0981 16.3851 17.0631Z" fill="#6E6E6E"/>
<path d="M7.05795 14.1344L2.05054 15.1606L1.67648 13.3164C1.64482 13.1459 1.6809 12.9697 1.77695 12.8256C1.87301 12.6816 2.02138 12.5812 2.19019 12.5461L5.90335 11.7933C6.07255 11.7574 6.24901 11.7899 6.39459 11.8838C6.54018 11.9777 6.6432 12.1255 6.68139 12.2952L7.05795 14.1344Z" fill="#E97522"/>
<path d="M10.5476 19.3624L13.0588 18.8606L14.57 26.3328L12.0588 26.8347L10.5476 19.3624Z" fill="#30302F"/>
<path d="M10.9234 13.4137V13.4338C10.9157 13.5766 10.9634 13.7168 11.0565 13.8249C11.1495 13.933 11.2806 14.0006 11.4222 14.0134L13.1054 14.1163C13.2469 14.1233 13.3857 14.075 13.4926 13.9815C13.5995 13.8879 13.6663 13.7564 13.679 13.6144V13.5944C13.6867 13.4516 13.639 13.3113 13.5459 13.2032C13.4529 13.0951 13.3218 13.0275 13.1802 13.0147L11.497 12.9094C11.3551 12.9023 11.216 12.951 11.109 13.045C11.002 13.1391 10.9355 13.2713 10.9234 13.4137Z" fill="#83BCDC"/>
<path d="M10.1125 10.8574V10.8398C10.0177 10.7308 9.96935 10.5887 9.97774 10.4442C9.98614 10.2996 10.0507 10.1641 10.1574 10.067L11.4242 8.94038C11.5324 8.84763 11.6722 8.80077 11.8141 8.80966C11.9559 8.81856 12.0889 8.88251 12.1848 8.98806C12.2365 9.0416 12.2768 9.10513 12.3034 9.17481C12.33 9.24449 12.3422 9.31887 12.3395 9.39345C12.3367 9.46803 12.3189 9.54127 12.2871 9.60874C12.2554 9.6762 12.2104 9.73649 12.1549 9.78596L10.8881 10.9151C10.7775 11.0106 10.6338 11.0581 10.4884 11.0473C10.3431 11.0365 10.2079 10.9682 10.1125 10.8574Z" fill="#83BCDC"/>
<path d="M7.70717 9.7557H7.68473C7.54341 9.74231 7.41268 9.67457 7.31977 9.56659C7.22686 9.45862 7.17893 9.31874 7.18598 9.17609L7.28823 7.48493C7.30093 7.34295 7.36773 7.21142 7.47464 7.11788C7.58155 7.02434 7.72028 6.97604 7.86178 6.9831H7.88423C8.02555 6.99649 8.15628 7.06424 8.24919 7.17221C8.3421 7.28019 8.39002 7.42007 8.38297 7.56271L8.27824 9.24635C8.26737 9.38922 8.20171 9.52225 8.09514 9.6173C7.98857 9.71235 7.84945 9.76198 7.70717 9.7557Z" fill="#83BCDC"/>
<path d="M62.0397 60.1348L60.5435 55.4853C60.4981 55.3485 60.4737 55.2055 60.4712 55.0613L59.8353 30.4717V32.9683C59.8343 33.8755 59.6792 34.7759 59.3764 35.6305L56.2244 44.6634L57.1321 46.0209C59.3787 49.3608 60.5791 53.3015 60.5784 57.3346C60.5785 58.2994 60.4833 59.2617 60.2941 60.2076L59.3964 64.6788H60.8128C61.1673 64.6788 61.5073 64.5372 61.758 64.2849C62.0086 64.0327 62.1495 63.6906 62.1495 63.334V60.8248C62.1491 60.5904 62.1121 60.3576 62.0397 60.1348Z" fill="#E6B8B8"/>
<path d="M65.0722 31.2883C64.6682 28.192 62.2842 28.4881 61.8802 25.3943C61.4762 22.3005 63.8603 22.0095 63.4563 18.9157C63.0523 15.8219 60.6683 16.1155 60.2643 13.0217V11.1499H37.9404V13.0217C37.5389 16.1205 35.1624 15.8244 34.7509 18.9157C34.3395 22.007 36.7285 22.3005 36.3245 25.3943C35.9205 28.4881 33.539 28.197 33.135 31.2883V32.041C33.1494 32.7467 33.4407 33.418 33.9453 33.9083C34.4499 34.3986 35.1268 34.6682 35.8282 34.6581H62.0124C62.8092 34.6729 63.5793 34.3688 64.1535 33.8127C64.7276 33.2566 65.059 32.494 65.0747 31.6923V31.3059L65.0722 31.2883Z" fill="#474748"/>
<path d="M59.461 21.3395C60.4236 19.1867 54.7653 12.7633 53.304 11.1499H52.0571L45.9724 13.659L38.3516 15.6664C38.3516 15.6664 41.2518 22.5163 40.9276 24.358C40.6034 26.1998 37.571 29.3061 39.9002 32.992C40.2842 33.6067 41.0672 34.1537 42.0947 34.643H60.8275C62.8001 31.0474 61.8624 29.296 60.5782 27.7077C58.9523 25.6954 58.3538 23.8161 59.461 21.3395Z" fill="#30302F"/>
<path d="M48.5173 63.7327H56.4972L54.8639 75.7264L53.617 82.4408L53.7541 83.7581L53.1432 87.3839C52.7115 87.1776 52.2396 87.0705 51.7617 87.0702H49.9263C49.5704 87.0708 49.2171 87.1319 48.8814 87.2509L48.4949 83.7531L48.7792 82.3003L48.5073 75.6636V63.7327H48.5173Z" fill="#E6AFAC"/>
<path d="M47.3818 87.8506L47.479 87.6574L48.5239 83.7507L48.9079 87.2635L49.1997 88.6962H52.8979L53.1697 87.3714L53.7782 83.7432L54.4565 87.6474L54.5363 87.8406C54.6342 88.0662 54.6851 88.3096 54.6859 88.5557C54.7055 89.0077 54.5461 89.4492 54.2427 89.7831C53.9393 90.1171 53.5167 90.3164 53.0675 90.3372H48.878C48.5857 90.3358 48.2987 90.2586 48.0447 90.113C47.7907 89.9675 47.5783 89.7586 47.4279 89.5064C47.2775 89.2542 47.1943 88.9673 47.1862 88.6733C47.1781 88.3793 47.2455 88.0882 47.3818 87.8281V87.8506Z" fill="#F9A7A7"/>
<path d="M47.1847 88.6137C47.3069 87.9689 48.3792 84.4862 48.5163 83.751L48.9029 87.2638C50.1497 86.9777 51.9627 86.905 53.1647 87.3968L53.7756 83.7685L54.4514 87.6753C54.638 88.0345 54.7136 88.4417 54.6684 88.8445C54.6168 89.2554 54.4198 89.6339 54.1133 89.9104C53.8069 90.1869 53.4116 90.343 53.0001 90.35C51.5288 90.1117 47.065 91.2734 47.1822 88.6137H47.1847Z" fill="#30302F"/>
<path d="M50.5614 68.3672H42.564L44.2073 80.3734L45.4417 87.0879L45.3046 88.4052L45.9155 92.0309C46.3473 91.8247 46.8191 91.7175 47.2971 91.7173H49.1275C49.4833 91.7191 49.8363 91.7802 50.1723 91.898L50.5589 88.4002L50.2895 86.9424L50.5589 80.3057V68.3672H50.5614Z" fill="#FFC2BF"/>
<path d="M56.4043 27.545H53.1325V25.1362C51.9717 25.633 50.7232 25.889 49.4617 25.889C48.2003 25.889 46.9518 25.633 45.791 25.1362V27.545H42.5192C40.624 27.545 39.0903 28.8573 39.0903 30.4782V32.9748C39.092 33.8791 39.2454 34.7766 39.5442 35.6295L42.6988 44.6624H56.2123L59.3793 35.6295C59.6782 34.7776 59.8308 33.8807 59.8307 32.9773V30.4682C59.8307 28.8548 58.297 27.545 56.4043 27.545Z" fill="#FFC2BF"/>
<path d="M58.8727 13.0221H58.8129V12.1439C58.8129 9.64841 57.8277 7.25512 56.0739 5.49054C54.3202 3.72595 51.9416 2.73462 49.4614 2.73462C46.9812 2.73462 44.6027 3.72595 42.8489 5.49054C41.0952 7.25512 40.1099 9.64841 40.1099 12.1439V13.0246H40.0526C39.3092 13.0149 38.592 13.3001 38.0561 13.8185C37.5202 14.3369 37.2086 15.0467 37.189 15.7945C37.1693 16.5422 37.4431 17.2677 37.951 17.8138C38.4589 18.36 39.1601 18.683 39.903 18.7129C39.9528 18.7129 40.0027 18.7129 40.0526 18.7129C40.1542 18.7154 40.2559 18.7104 40.3568 18.6978C40.8522 20.751 42.0188 22.5771 43.6695 23.8831C45.3202 25.189 47.3591 25.899 49.4589 25.899C51.5588 25.899 53.5977 25.189 55.2484 23.8831C56.899 22.5771 58.0657 20.751 58.561 18.6978C58.6608 18.6978 58.7555 18.7129 58.8678 18.7129C59.2422 18.7281 59.616 18.6682 59.9672 18.5368C60.3185 18.4054 60.6403 18.2051 60.914 17.9474C61.1876 17.6898 61.4076 17.38 61.5612 17.036C61.7148 16.692 61.799 16.3208 61.8087 15.9438C61.8185 15.5669 61.7537 15.1917 61.618 14.8402C61.4824 14.4886 61.2787 14.1677 61.0188 13.8961C60.7588 13.6245 60.4478 13.4076 60.1038 13.258C59.7598 13.1084 59.3896 13.029 59.0149 13.0246H58.8678L58.8727 13.0221Z" fill="#FFCFCD"/>
<path d="M49.4664 25.8902C51.5667 25.8961 53.6076 25.1889 55.2589 23.883C56.9102 22.5771 58.0754 20.7488 58.566 18.6939C58.6657 18.6939 58.7605 18.7115 58.8727 18.7115C59.2472 18.7267 59.6209 18.6669 59.9722 18.5355C60.3235 18.4041 60.6453 18.2037 60.9189 17.9461C61.1926 17.6884 61.4126 17.3786 61.5662 17.0347C61.7198 16.6907 61.8039 16.3194 61.8137 15.9425C61.8234 15.5655 61.7586 15.1904 61.623 14.8388C61.4874 14.4873 61.2837 14.1664 61.0237 13.8948C60.7637 13.6232 60.4527 13.4062 60.1087 13.2566C59.7647 13.107 59.3946 13.0277 59.0198 13.0233H58.8128V12.1451C58.7951 10.577 58.3886 9.0382 57.6302 7.66819C56.8719 6.29817 55.7856 5.14028 54.47 4.2995C53.1545 3.45871 51.6511 2.96163 50.0963 2.85331C48.5415 2.745 46.9844 3.02888 45.5662 3.67922L46.4764 12.5114C51.3915 12.7297 52.5411 10.6873 52.5411 10.6873C52.5411 10.6873 57.1296 11.5128 57.3041 15.141C57.4787 18.7692 55.1246 25.8902 49.4664 25.8902Z" fill="#E6B8B8"/>
<g opacity="0.6">
<path opacity="0.6" d="M48.8929 87.2541C49.2289 87.1364 49.582 87.0753 49.9378 87.0735H48.8779L48.8929 87.2541Z" fill="#E6B8B8"/>
<path opacity="0.6" d="M56.5089 63.7314H55.2895L53.6461 75.7377L52.3993 82.4522L52.5339 83.7695L51.9753 87.0966C52.3797 87.1241 52.7755 87.2271 53.1424 87.4002L53.7534 83.772L53.6162 82.4547L54.8631 75.7402L56.5089 63.7314Z" fill="#E6B8B8"/>
</g>
<path d="M39.5196 28.9348L32.1182 37.5763C31.6728 38.0703 31.426 38.7134 31.426 39.3804C31.426 40.0474 31.6728 40.6905 32.1182 41.1845L37.9984 47.6581C38.0841 47.7517 38.1414 47.8681 38.1635 47.9935C38.1856 48.1189 38.1716 48.248 38.1231 48.3656L37.2254 50.5561C36.8956 51.3659 36.8594 52.2665 37.1231 53.1004L38.2802 56.7512H38.3476C38.4575 52.9183 39.6494 49.1961 41.7839 46.0196L41.8039 45.9895L38.158 40.6626C38.0651 40.5275 38.025 40.3628 38.0452 40.1999C38.0654 40.0369 38.1447 39.8872 38.2678 39.7793L40.345 37.9527L39.5545 35.6292C39.2548 34.7775 39.1014 33.8806 39.1007 32.977V30.4679C39.1022 30.2804 39.124 30.0937 39.1655 29.9109" fill="#FFC2BF"/>
<path d="M57.4238 27.6755C57.0926 27.588 56.7514 27.5441 56.4089 27.545H53.1371V25.1362C52.0842 25.5899 50.9575 25.845 49.813 25.889C49.813 28.4809 52.5386 28.9551 53.4713 28.9677C57.0149 29.0179 56.9625 30.2223 56.9625 30.2223C57.2791 29.4115 57.4358 28.5465 57.4238 27.6755Z" fill="#E6B8B8"/>
<g opacity="0.6">
<path opacity="0.6" d="M50.5619 68.3674H49.0931V80.3135L48.8163 86.9451L49.0881 88.403L48.729 91.72H49.128C49.4839 91.7207 49.8372 91.7817 50.1729 91.9007L50.5594 88.403L50.2901 86.9451L50.5594 80.3084L50.5619 68.3674Z" fill="#E6B8B8"/>
<path opacity="0.6" d="M45.9161 92.0331C46.3479 91.8269 46.8197 91.7197 47.2977 91.7195H45.8638L45.9161 92.0331Z" fill="#E6B8B8"/>
</g>
<path d="M57.132 46.0211L56.2243 44.6661L59.3763 35.6332C59.6748 34.7812 59.8283 33.8845 59.8302 32.9811V30.4719C59.8278 30.2843 59.8052 30.0976 59.7629 29.9149C59.6804 29.3294 59.405 28.7887 58.981 28.3792C58.5569 27.9698 58.0086 27.7154 57.4237 27.6567C57.4486 29.2886 56.879 30.8733 55.8223 32.1116C54.7657 33.35 53.2951 34.1564 51.6882 34.3787C51.0686 34.457 50.4448 34.4955 49.8204 34.4941C48.3299 34.5247 46.8464 34.2798 45.4439 33.7714C44.2356 33.2951 43.2092 32.4445 42.513 31.3426C41.8168 30.2407 41.487 28.9446 41.5711 27.6416C39.1547 27.9276 39.1148 30.2712 39.1148 30.4594V32.956C39.1095 33.8665 39.2596 34.7713 39.5587 35.6307L42.7107 44.6636L41.8055 46.0186C39.5584 49.3594 38.3571 53.3008 38.3567 57.3348C38.3598 58.3042 38.4593 59.2708 38.6534 60.2203L39.2694 63.2965C39.6795 65.3349 40.1965 67.3501 40.818 69.3335C47.2693 68.079 51.0922 73.5389 56.7953 72.0635L58.8078 71.5416L60.304 60.2203C60.4932 59.2745 60.5884 58.3121 60.5883 57.3474C60.587 53.3092 59.3831 49.3641 57.132 46.0211Z" fill="#89C3E8"/>
<path d="M45.2575 12.6185H38.3299C38.2288 12.6188 38.1287 12.5991 38.0352 12.5604C37.9417 12.5217 37.8568 12.4648 37.7852 12.393C37.7136 12.3212 37.6568 12.2359 37.618 12.142C37.5793 12.0481 37.5593 11.9474 37.5593 11.8457V7.45216C37.5593 5.47572 38.3396 3.58024 39.7286 2.18269C41.1176 0.785136 43.0014 0 44.9657 0L48.629 0C49.5172 0.00132875 50.3687 0.357129 50.9966 0.989341C51.6244 1.62155 51.9774 2.47854 51.9781 3.37229V5.84882C51.9781 7.64558 51.2687 9.36875 50.006 10.6392C48.7433 11.9097 47.0307 12.6235 45.245 12.6235L45.2575 12.6185Z" fill="#474748"/>
<path d="M59.8508 11.6173H58.4867C57.6318 11.6176 56.7852 11.4485 55.9952 11.1195C55.2052 10.7905 54.4875 10.3082 53.8828 9.70004C53.2782 9.09189 52.7985 8.36984 52.4713 7.57513C52.144 6.78042 51.9756 5.92863 51.9756 5.0684V2.90552C51.9756 2.36626 52.1883 1.84905 52.5671 1.4675C52.9458 1.08596 53.4596 0.87127 53.9955 0.870605H54.3995C56.0529 0.870605 57.6387 1.53149 58.8078 2.70788C59.977 3.88427 60.6338 5.4798 60.6338 7.14347V10.8445C60.6338 10.9462 60.6139 11.0469 60.5751 11.1408C60.5364 11.2347 60.4796 11.32 60.408 11.3918C60.3364 11.4636 60.2514 11.5205 60.1579 11.5592C60.0645 11.5979 59.9643 11.6176 59.8633 11.6173H59.8508Z" fill="#474748"/>
<path d="M51.6958 92.4982L51.5985 92.305L50.5611 88.4058L50.1771 91.9186L49.8754 93.3613H46.1846L45.9153 92.034L45.3044 88.4083L44.6385 92.31L44.5562 92.5057C44.4593 92.7307 44.4084 92.9731 44.4066 93.2183C44.3962 93.4425 44.43 93.6665 44.5059 93.8776C44.5819 94.0886 44.6985 94.2825 44.8491 94.448C44.9997 94.6135 45.1814 94.7475 45.3836 94.8422C45.5858 94.9369 45.8047 94.9905 46.0275 94.9998H50.1946C50.4871 94.9991 50.7745 94.9223 51.0289 94.777C51.2833 94.6316 51.4961 94.4226 51.6466 94.1702C51.7972 93.9178 51.8803 93.6305 51.888 93.3363C51.8958 93.042 51.8278 92.7507 51.6908 92.4906L51.6958 92.4982Z" fill="#F9A7A7"/>
<path d="M51.8883 93.2612C51.8814 92.9986 51.8148 92.7411 51.6938 92.5084L51.5965 92.3152L50.5616 88.416L50.1776 91.9138C49.8415 91.7963 49.4885 91.7352 49.1327 91.7331H47.2899C46.8116 91.733 46.3395 91.8411 45.9083 92.0493L45.2999 88.4185L44.6216 92.3253L44.5393 92.5185C44.4425 92.7444 44.3916 92.9876 44.3896 93.2336C44.3896 93.3175 44.3955 93.4014 44.4071 93.4845V93.5146C44.4157 93.5772 44.4282 93.6392 44.4445 93.7003C44.457 93.7454 44.467 93.7906 44.4819 93.8358C44.4969 93.8809 44.5243 93.9487 44.5492 94.0039C44.5742 94.0591 44.5891 94.0892 44.6141 94.1318C44.639 94.1745 44.6739 94.2297 44.7064 94.2774L44.7986 94.3978C44.831 94.4355 44.8709 94.4781 44.9083 94.5157L45.033 94.6236C45.0711 94.6561 45.1111 94.6863 45.1527 94.714C45.2041 94.7472 45.2574 94.7773 45.3123 94.8043C45.3672 94.8294 45.3921 94.847 45.4345 94.8645C45.5014 94.8909 45.5697 94.9135 45.639 94.9323C45.6739 94.9323 45.7088 94.9548 45.7487 94.9624C45.8586 94.9862 45.9705 94.9988 46.0829 95H50.1776C50.5163 94.9995 50.8471 94.8973 51.1277 94.7064C51.3084 94.584 51.4634 94.4272 51.5841 94.2448C51.7741 93.9636 51.8758 93.6314 51.8758 93.2913V93.2612H51.8883Z" fill="#30302F"/>
<path d="M58.7978 71.5363C59.3763 67.1629 60.294 60.21 60.294 60.21C60.4821 59.2632 60.5774 58.3001 60.5783 57.3345C60.5775 53.3017 59.3772 49.3614 57.132 46.0208L56.2243 44.6659L59.3763 35.6329C59.6749 34.7809 59.8283 33.8842 59.8302 32.9808V31.9044C59.8302 31.9044 60.5783 28.1005 57.4238 27.679C57.1993 29.8519 56.9649 30.2107 56.9649 30.2107C55.0123 39.9813 52.8677 44.9143 52.8677 44.9143C52.8677 44.9143 56.7903 55.4778 56.5086 59.4673C55.7929 69.539 53.2667 69.938 45.7681 69.5616C50.8927 70.8613 52.7954 73.6339 58.7978 71.5363Z" fill="#6DB8E8"/>
<path d="M41.8214 45.9891L38.1756 40.6622C38.0827 40.5272 38.0425 40.3625 38.0628 40.1995C38.083 40.0366 38.1623 39.8869 38.2853 39.779L40.3626 37.9524L39.7566 36.2085C38.3801 36.9838 35.8864 38.4793 35.9637 39.493C36.0709 40.8655 40.4225 46.1146 40.0584 47.5799C39.6943 49.0453 37.6669 50.9723 38.4923 54.992C38.862 51.7733 39.9961 48.6914 41.799 46.0067L41.8214 45.9891Z" fill="#E6B8B8"/>
<path d="M49.2494 95H50.1921C50.53 94.9995 50.86 94.8972 51.1397 94.7064C51.37 94.5503 51.5587 94.3395 51.6892 94.0928C51.8196 93.846 51.8878 93.5708 51.8878 93.2913V93.2612C51.8829 92.9986 51.8172 92.7409 51.6958 92.5084L51.5985 92.3152L50.5611 88.416L50.1771 91.9138C49.841 91.7963 49.488 91.7352 49.1322 91.7331H49.0898C49.4315 92.5135 49.9676 94.1093 49.2494 95Z" fill="#585858"/>
<path d="M53.309 90.3146C53.3468 90.3084 53.3836 90.2974 53.4187 90.282C53.4839 90.264 53.548 90.2422 53.6107 90.2167C53.6531 90.1992 53.693 90.1766 53.7329 90.1565C53.7728 90.1365 53.8427 90.0988 53.895 90.0662L54.0122 89.9759L54.1394 89.868C54.1768 89.8303 54.2117 89.7902 54.2466 89.7475C54.2816 89.7049 54.3115 89.6698 54.3414 89.6296C54.3713 89.5895 54.4037 89.5343 54.4337 89.4841C54.4636 89.4339 54.4761 89.3988 54.4985 89.3561C54.5209 89.3135 54.5459 89.2432 54.5658 89.188C54.5858 89.1328 54.5908 89.0977 54.6032 89.0525C54.6157 89.0073 54.6307 88.9296 54.6406 88.8668V88.8367C54.6525 88.7536 54.6575 88.6697 54.6556 88.5858C54.6548 88.3397 54.6039 88.0963 54.506 87.8707L54.4262 87.6775L53.7479 83.7708L53.1369 87.399C52.8534 87.2647 52.5517 87.1734 52.2417 87.128C52.2454 87.1395 52.2519 87.1499 52.2606 87.1582C52.2693 87.1665 52.28 87.1725 52.2916 87.1757C52.8277 87.266 52.7155 90.1866 51.8701 90.3598H52.9549C53.0743 90.3586 53.1931 90.3434 53.309 90.3146Z" fill="#585858"/>
<path d="M51.2075 45.2847C51.4295 46.2281 51.7063 48.0447 51.9781 50.4008C51.9928 50.5384 52.0574 50.6656 52.1596 50.7582C52.2617 50.8508 52.3942 50.9022 52.5317 50.9027H52.5965C52.67 50.8952 52.7414 50.8731 52.8063 50.8376C52.8713 50.8022 52.9286 50.7542 52.975 50.6963C53.0214 50.6384 53.0559 50.5719 53.0766 50.5005C53.0972 50.4291 53.1036 50.3543 53.0953 50.2804C52.826 47.9845 52.5566 46.1779 52.3297 45.1667H51.2025C51.2 45.2061 51.2017 45.2457 51.2075 45.2847Z" fill="#6DB8E8"/>
<path d="M46.3426 50.8924H46.4099C46.5471 50.8919 46.6793 50.8404 46.781 50.7477C46.8827 50.6551 46.9468 50.5279 46.961 50.3906C47.2278 48.1323 47.4922 46.3433 47.7091 45.3723C47.7207 45.317 47.7249 45.2605 47.7216 45.2042V45.1389H46.6069V45.2092C46.3849 46.2254 46.1081 48.0094 45.8588 50.2526C45.8479 50.3266 45.8519 50.4022 45.8704 50.4747C45.889 50.5472 45.9217 50.6153 45.9668 50.6749C46.0119 50.7345 46.0683 50.7845 46.1329 50.8218C46.1974 50.8592 46.2687 50.8832 46.3426 50.8924Z" fill="#6DB8E8"/>
<path d="M56.0925 44.2085H42.8333C42.5868 44.2085 42.387 44.4096 42.387 44.6576V45.1444C42.387 45.3925 42.5868 45.5935 42.8333 45.5935H56.0925C56.339 45.5935 56.5389 45.3925 56.5389 45.1444V44.6576C56.5389 44.4096 56.339 44.2085 56.0925 44.2085Z" fill="#E0EBFC"/>
<path d="M49.4616 46.439C50.7383 46.439 51.7733 45.7504 51.7733 44.9009C51.7733 44.0514 50.7383 43.3628 49.4616 43.3628C48.1849 43.3628 47.1499 44.0514 47.1499 44.9009C47.1499 45.7504 48.1849 46.439 49.4616 46.439Z" fill="white"/>
<g opacity="0.7">
<path opacity="0.7" d="M47.2246 45.3128C47.4939 45.9602 48.3717 46.4344 49.4515 46.4344C50.7258 46.4344 51.7607 45.7469 51.7607 44.9013C51.7445 44.658 51.6641 44.4235 51.5278 44.2219C51.3915 44.0203 51.2041 43.859 50.9852 43.7546C51.0403 43.8857 51.07 44.0263 51.0724 44.1686C51.0724 45.0142 50.035 45.7017 48.7607 45.7017C48.2239 45.7083 47.6945 45.5742 47.2246 45.3128Z" fill="#D3CDBF"/>
</g>
<path d="M49.4286 6.52358C54.0844 6.52358 57.9497 8.62875 58.8125 13.0172C58.8723 13.0172 58.9497 13.0172 59.0195 13.0172C59.1043 12.4351 59.0045 11.3411 59.0045 10.8192C58.964 8.2911 57.9374 5.88032 56.1462 4.10691C54.355 2.3335 51.9428 1.3396 49.4298 1.3396C46.9169 1.3396 44.5047 2.3335 42.7135 4.10691C40.9223 5.88032 39.8957 8.2911 39.8552 10.8192C39.8552 11.3411 39.7205 12.4376 39.8228 13.0223C39.92 13.0223 39.9973 13.0223 40.117 13.0223C40.9798 8.63879 44.7753 6.52358 49.4286 6.52358Z" fill="#E97522"/>
<path d="M56.0525 3.9397C56.5512 4.5168 57.1871 7.95433 56.3019 8.70707C57.6114 9.80919 58.4941 11.3395 58.7956 13.0303C58.8554 13.0303 58.9327 13.0303 59.0026 13.0303C59.0874 12.4482 58.9876 11.3542 58.9876 10.8323C58.9907 9.54287 58.7319 8.26638 58.2272 7.08114C57.7225 5.8959 56.9825 4.8269 56.0525 3.9397Z" fill="black" fill-opacity="0.32"/>
<path d="M38.7262 17.0837C38.6622 17.087 38.6019 17.1148 38.5578 17.1615C38.5137 17.2082 38.4892 17.2702 38.4893 17.3347V19.0108C38.505 19.0619 38.5367 19.1066 38.5795 19.1384C38.6224 19.1701 38.6742 19.1873 38.7274 19.1873C38.7806 19.1873 38.8325 19.1701 38.8753 19.1384C38.9181 19.1066 38.9498 19.0619 38.9656 19.0108V17.3246C38.9631 17.2615 38.9371 17.2017 38.8927 17.157C38.8483 17.1124 38.7889 17.0862 38.7262 17.0837Z" fill="#D8E2F2"/>
<path d="M59.4615 17.0837C59.3976 17.087 59.3373 17.1148 59.2932 17.1615C59.2491 17.2082 59.2245 17.2702 59.2246 17.3347V19.0108C59.2404 19.0619 59.272 19.1066 59.3149 19.1384C59.3577 19.1701 59.4095 19.1873 59.4628 19.1873C59.516 19.1873 59.5678 19.1701 59.6106 19.1384C59.6535 19.1066 59.6851 19.0619 59.7009 19.0108V17.3246C59.6984 17.2615 59.6724 17.2017 59.6281 17.157C59.5837 17.1124 59.5242 17.0862 59.4615 17.0837Z" fill="#D8E2F2"/>
<path d="M39.9154 20.4025C39.9288 20.5649 39.9077 20.7283 39.8535 20.8819C39.7993 21.0355 39.7133 21.1757 39.6012 21.2933C39.434 21.4752 39.215 21.6006 38.9741 21.6521C38.7333 21.7037 38.4825 21.679 38.2562 21.5814C38.0299 21.4838 37.8392 21.318 37.7103 21.1069C37.5814 20.8959 37.5207 20.6498 37.5364 20.4025C37.5364 19.7878 38.2147 19.1204 38.5339 18.8293C38.5828 18.7812 38.648 18.7534 38.7164 18.7516C38.7849 18.7497 38.8515 18.7739 38.9029 18.8193C39.2396 19.1204 39.9154 19.7878 39.9154 20.4025Z" fill="#E0EBFC"/>
<path d="M60.651 20.4021C60.666 20.5636 60.6469 20.7265 60.5949 20.88C60.5429 21.0335 60.4591 21.1742 60.3492 21.2929C60.1821 21.4748 59.963 21.6002 59.7222 21.6517C59.4814 21.7033 59.2306 21.6786 59.0043 21.581C58.778 21.4834 58.5873 21.3176 58.4584 21.1065C58.3295 20.8954 58.2687 20.6494 58.2844 20.4021C58.2844 19.7874 58.9627 19.12 59.2944 18.8289C59.344 18.785 59.4078 18.7607 59.4739 18.7607C59.54 18.7607 59.6038 18.785 59.6535 18.8289C59.9727 19.12 60.651 19.7874 60.651 20.4021Z" fill="#E0EBFC"/>
<path d="M38.539 19.8596L38.5116 19.8948C38.4256 19.9805 38.3589 20.0837 38.3159 20.1976C38.2728 20.3114 38.2545 20.4331 38.2622 20.5547C38.2738 20.6092 38.3031 20.6584 38.3456 20.6943C38.3881 20.7302 38.4412 20.7508 38.4966 20.7529H38.5365C38.5968 20.7391 38.6499 20.7032 38.6854 20.6521C38.7209 20.6011 38.7363 20.5387 38.7285 20.4769C38.7285 20.4091 38.8233 20.2762 38.8856 20.1959L38.9156 20.1582C38.9481 20.1361 38.9751 20.1064 38.9941 20.0718C39.0131 20.0371 39.0238 19.9985 39.0251 19.9589C39.0264 19.9193 39.0184 19.88 39.0018 19.8441C38.9851 19.8083 38.9603 19.7769 38.9292 19.7525C38.8982 19.7282 38.8619 19.7116 38.8233 19.704C38.7846 19.6965 38.7448 19.6983 38.707 19.7092C38.6692 19.7202 38.6345 19.7399 38.6057 19.767C38.5769 19.794 38.5549 19.8275 38.5415 19.8647L38.539 19.8596Z" fill="white"/>
<path d="M59.6009 19.8229C59.55 19.7867 59.4875 19.771 59.4256 19.7789C59.3638 19.7867 59.3071 19.8177 59.2668 19.8655L59.2393 19.9007C59.1534 19.9864 59.0867 20.0896 59.0436 20.2034C59.0006 20.3173 58.9823 20.439 58.99 20.5606C59.0016 20.6151 59.0309 20.6642 59.0734 20.7001C59.1158 20.736 59.169 20.7567 59.2244 20.7588H59.2643C59.3246 20.7449 59.3777 20.709 59.4132 20.658C59.4487 20.607 59.464 20.5446 59.4563 20.4828C59.4438 20.415 59.5511 20.282 59.6134 20.2018L59.6433 20.1641C59.6808 20.1125 59.6973 20.0484 59.6894 19.985C59.6815 19.9216 59.6499 19.8636 59.6009 19.8229Z" fill="white"/>
<path opacity="0.8" d="M89.1625 12.1108C88.4917 13.9274 86.4194 18.622 82.7013 19.8189C82.6449 19.8365 82.5955 19.8718 82.5605 19.9197C82.5255 19.9675 82.5066 20.0254 82.5066 20.0848C82.5066 20.1443 82.5255 20.2021 82.5605 20.25C82.5955 20.2979 82.6449 20.3332 82.7013 20.3508C86.4668 21.4373 88.4992 25.7204 89.16 27.3764C89.1815 27.4271 89.2173 27.4702 89.263 27.5006C89.3086 27.5309 89.3621 27.5471 89.4169 27.5471C89.4716 27.5471 89.5251 27.5309 89.5708 27.5006C89.6164 27.4702 89.6522 27.4271 89.6737 27.3764C90.4218 25.6928 92.731 21.2842 96.7135 20.3834C96.7721 20.3684 96.8243 20.3346 96.8622 20.2871C96.9 20.2397 96.9216 20.1811 96.9235 20.1203C96.9255 20.0595 96.9078 19.9996 96.8731 19.9498C96.8383 19.9 96.7885 19.8628 96.731 19.844C92.6338 18.4363 90.4044 13.8622 89.6737 12.0832C89.6493 12.0343 89.6113 11.9937 89.5643 11.9662C89.5173 11.9388 89.4634 11.9257 89.4091 11.9286C89.3549 11.9316 89.3026 11.9504 89.2588 11.9827C89.215 12.0151 89.1815 12.0596 89.1625 12.1108Z" fill="#E97522"/>
<path d="M81.9193 10.0598C80.6724 9.27942 78.1437 7.31978 77.3108 3.96756C77.2161 3.58868 76.8769 3.59871 76.7922 3.98261C76.044 7.36243 73.7199 9.29698 72.5902 10.0648C72.4835 10.1733 72.4236 10.3198 72.4236 10.4725C72.4236 10.6252 72.4835 10.7717 72.5902 10.8803C73.7323 11.7434 76.1114 13.9238 76.7822 17.5069C76.857 17.9033 77.2061 17.9385 77.3034 17.5521C78.0137 14.8468 79.6568 12.4838 81.9392 10.8853C81.9926 10.8302 82.0345 10.7649 82.0625 10.6933C82.0904 10.6217 82.1039 10.5452 82.102 10.4683C82.1001 10.3914 82.083 10.3156 82.0516 10.2455C82.0203 10.1753 81.9752 10.1122 81.9193 10.0598Z" fill="#E97522"/>
<path d="M79.8955 28.1222C79.1948 27.668 77.7609 26.5289 77.2871 24.5793C77.2347 24.3584 77.0377 24.3635 76.9953 24.5793C76.6708 26.0168 75.8218 27.2793 74.6163 28.1171C74.5563 28.1814 74.5229 28.2662 74.5229 28.3543C74.5229 28.4424 74.5563 28.5272 74.6163 28.5914C75.8464 29.5431 76.6895 30.9133 76.9878 32.4454C77.0302 32.6763 77.2372 32.6963 77.2821 32.473C77.6775 30.9145 78.6042 29.5451 79.9005 28.6039C79.9319 28.5721 79.9566 28.5343 79.9733 28.4928C79.9901 28.4513 79.9984 28.4068 79.998 28.362C79.9975 28.3172 79.9882 28.2729 79.9706 28.2318C79.953 28.1906 79.9275 28.1533 79.8955 28.1222Z" fill="#E97522"/>
</svg>
