<svg width="99" height="109" viewBox="0 0 99 109" fill="none" xmlns="http://www.w3.org/2000/svg">
<g filter="url(#filter0_d_13511_27265)">
<path d="M63.8285 28.0083C64.0058 27.6558 64.1101 27.2719 64.1354 26.879C64.1607 26.486 64.1065 26.0921 63.9758 25.7202C63.8451 25.3483 63.6407 25.0059 63.3745 24.7132C63.1083 24.4205 62.7857 24.1834 62.4256 24.0156L52.3635 19.3223C51.8498 19.083 51.4157 18.7038 51.1121 18.2292C50.8085 17.7546 50.6478 17.2043 50.649 16.6426V12.9715C50.649 12.4493 50.4396 11.9484 50.0666 11.5788C49.6937 11.2092 49.1877 11.001 48.6598 11H36.4808C35.9522 11 35.4452 11.2077 35.0715 11.5774C34.6977 11.9472 34.4877 12.4486 34.4877 12.9715V16.6484C34.4889 17.21 34.3283 17.7604 34.0246 18.235C33.721 18.7095 33.2869 19.0887 32.7733 19.3281L22.715 24.0156C22.3549 24.1833 22.0323 24.4205 21.7662 24.7133C21.5 25.006 21.2957 25.3484 21.1652 25.7204C21.0347 26.0923 20.9806 26.4863 21.0062 26.8792C21.0317 27.2721 21.1364 27.656 21.3141 28.0083L23.0749 31.5072C24.8389 35.0158 25.8808 38.8359 26.1402 42.746C26.3996 46.656 25.8714 50.5781 24.5862 54.2846C24.4017 54.8167 24.2018 55.3437 23.9863 55.8656L22.6434 59.1195C22.4581 59.5687 22.3873 60.0562 22.4373 60.5389C22.4873 61.0216 22.6566 61.4847 22.9301 61.8875C23.2037 62.2903 23.5732 62.6203 24.006 62.8486C24.4389 63.0768 24.9219 63.1963 25.4124 63.1964H59.734C60.2244 63.1961 60.7071 63.0765 61.1398 62.8481C61.5724 62.6197 61.9416 62.2896 62.2148 61.8867C62.488 61.4839 62.6568 61.0208 62.7064 60.5382C62.756 60.0557 62.6848 59.5684 62.4991 59.1195L61.1562 55.8656C60.9408 55.3437 60.7408 54.8167 60.5564 54.2846C59.2704 50.5781 58.7419 46.6559 59.0017 42.7457C59.2614 38.8355 60.3043 35.0153 62.0695 31.5072L63.8285 28.0083Z" fill="white"/>
</g>
<path d="M46.591 40.825H42.8215V44.5535H46.591V40.825Z" fill="#D2E2EB"/>
<path d="M46.591 33.3694H42.8215V37.098H46.591V33.3694Z" fill="#D2E2EB"/>
<path d="M50.3608 44.5537H46.5913V48.2823H50.3608V44.5537Z" fill="#D2E2EB"/>
<path d="M50.3608 37.0964H46.5913V40.825H50.3608V37.0964Z" fill="#E3E3E3"/>
<path d="M42.8215 37.0964H39.052V40.825H42.8215V37.0964Z" fill="#D2E2EB"/>
<path d="M42.8215 44.5537H39.052V48.2823H42.8215V44.5537Z" fill="#D2E2EB"/>
<path d="M46.591 25.9124H42.8215V29.6409H46.591V25.9124Z" fill="#D2E2EB"/>
<path d="M46.591 11H43.4756H42.8215V14.7286H46.591V11Z" fill="#D2E2EB"/>
<path d="M25.2029 37.0964C25.5309 38.3223 25.7791 39.5677 25.9459 40.825H27.7455V37.0964H25.2029Z" fill="#D2E2EB"/>
<path d="M23.9761 33.4824V33.3694H23.9277C23.9432 33.4077 23.9606 33.4441 23.9761 33.4824Z" fill="#E3E3E3"/>
<path d="M26.2018 44.5537C26.2079 45.8 26.1336 47.0454 25.9792 48.2823H27.746V44.5537H26.2018Z" fill="#D2E2EB"/>
<path d="M31.5156 19.9102L27.7461 21.6692V22.1841H31.5156V19.9102Z" fill="#D2E2EB"/>
<path d="M25.2712 52.0107C25.0738 52.7764 24.8455 53.5337 24.5862 54.2827C24.4159 54.7708 24.2321 55.257 24.0366 55.7374H27.7461V52.0107H25.2712Z" fill="#D2E2EB"/>
<path d="M21.111 25.9124C20.9121 26.6148 20.9846 27.3653 21.3142 28.0178L22.1347 29.6505H23.9768V25.9124H21.111Z" fill="#D2E2EB"/>
<path d="M22.6412 59.1173C22.5941 59.2307 22.5547 59.3471 22.5232 59.4657H23.9764V55.8826L22.6412 59.1173Z" fill="#D2E2EB"/>
<path d="M34.4893 14.7288V16.6428C34.4918 17.3021 34.2719 17.9434 33.8643 18.465H35.2846V14.7288H34.4893Z" fill="#D2E2EB"/>
<path d="M50.3608 59.4661H46.5913V63.1947H50.3608V59.4661Z" fill="#D2E2EB"/>
<path d="M42.8215 59.4661H39.052V63.1947H42.8215V59.4661Z" fill="#D2E2EB"/>
<path d="M35.2846 59.4661H31.5151V63.1947H35.2846V59.4661Z" fill="#D2E2EB"/>
<path d="M23.9763 62.8367C24.4164 63.0731 24.9095 63.1962 25.4102 63.1947H27.7458V59.4661H23.9763V62.8367Z" fill="#D2E2EB"/>
<path d="M57.897 21.9043V22.1837H58.5007L57.897 21.9043Z" fill="#E3E3E3"/>
<path d="M58.94 44.5535C58.9457 43.3066 59.031 42.0613 59.1954 40.825H57.897V44.5535H58.94Z" fill="#E3E3E3"/>
<path d="M59.9385 37.0961C60.279 35.8271 60.7051 34.5821 61.2137 33.3694H57.897V37.0961H59.9385Z" fill="#D2E2EB"/>
<path d="M61.6665 25.9124H57.897V29.6409H61.6665V25.9124Z" fill="#D2E2EB"/>
<path d="M59.8707 52.0108C59.5545 50.7842 59.3179 49.5388 59.1625 48.2822H57.897V52.0108H59.8707Z" fill="#D2E2EB"/>
<path d="M62.6188 59.4661H61.6667V62.4884C62.0985 62.1255 62.4172 61.6488 62.5857 61.1137C62.7542 60.5787 62.7657 60.0073 62.6188 59.4661Z" fill="#E3E3E3"/>
<path d="M61.6665 59.4659V57.1001L61.1556 55.8636C61.1382 55.8215 61.1227 55.7794 61.1072 55.7373H57.897V59.4659H61.6665Z" fill="#D2E2EB"/>
<path d="M39.052 11H36.4803C36.0474 10.9994 35.6264 11.14 35.2825 11.4V14.7286H39.052V11Z" fill="#D2E2EB"/>
<path d="M50.6525 12.9715C50.6505 12.6133 50.5495 12.2625 50.3604 11.957V14.7286H50.6525V12.9715Z" fill="#E3E3E3"/>
<path d="M50.3608 29.6414H46.5913V33.3699H50.3608V29.6414Z" fill="#D2E2EB"/>
<path d="M62.0692 31.5095L63.0077 29.6414H61.6667V32.3459C61.7964 32.0646 61.9299 31.787 62.0692 31.5095Z" fill="#D2E2EB"/>
<path d="M31.5156 25.9124H27.7461V29.6409H31.5156V25.9124Z" fill="#D2E2EB"/>
<path d="M62.4253 24.016L61.6667 23.6619V25.9128H64.0333C63.9201 25.5003 63.7177 25.1171 63.4401 24.7896C63.1624 24.4621 62.8162 24.1981 62.4253 24.016Z" fill="#D2E2EB"/>
<path d="M27.7458 22.1838H26.6428L23.9763 23.428V25.9124H27.7458V22.1838Z" fill="#D2E2EB"/>
<path d="M50.3608 14.7288H46.5913V18.4573H50.3608V14.7288Z" fill="#D2E2EB"/>
<path d="M57.8974 52.0107H54.1279V55.7393H57.8974V52.0107Z" fill="#D2E2EB"/>
<path d="M54.1279 22.1839V20.1454L52.367 19.3223C51.9412 19.1254 51.5686 18.8315 51.2795 18.4648H50.3604V22.1839H54.1279Z" fill="#D2E2EB"/>
<path d="M39.0539 18.4573H35.2844V22.1859H39.0539V18.4573Z" fill="#D2E2EB"/>
<path d="M42.8215 14.7288H39.052V18.4573H42.8215V14.7288Z" fill="#D2E2EB"/>
<path d="M57.8974 22.1838H54.1279V25.9124H57.8974V22.1838Z" fill="#D2E2EB"/>
<path d="M57.8974 37.0964H54.1279V40.825H57.8974V37.0964Z" fill="#E3E3E3"/>
<path d="M57.8974 44.5537H54.1279V48.2823H57.8974V44.5537Z" fill="#D2E2EB"/>
<path d="M57.8974 29.6414H54.1279V33.3699H57.8974V29.6414Z" fill="#D2E2EB"/>
<path d="M35.2846 22.1838H31.5151V25.9124H35.2846V22.1838Z" fill="#D2E2EB"/>
<path d="M54.1298 55.7373H50.3604V59.4659H54.1298V55.7373Z" fill="#D2E2EB"/>
<path d="M39.0539 55.7373H35.2844V59.4659H39.0539V55.7373Z" fill="#D2E2EB"/>
<path d="M46.591 55.7373H42.8215V59.4659H46.591V55.7373Z" fill="#D2E2EB"/>
<path d="M54.1299 59.4661V63.1947H54.1512H57.8974V59.4661H54.1299Z" fill="#D2E2EB"/>
<path d="M31.5156 40.825H27.7461V44.5535H31.5156V40.825Z" fill="#D2E2EB"/>
<path d="M27.7458 29.6414H23.9763V33.3699H27.7458V29.6414Z" fill="#D2E2EB"/>
<path d="M31.5156 33.3694H27.7461V37.098H31.5156V33.3694Z" fill="#D2E2EB"/>
<path d="M31.5156 48.2822H27.7461V52.0108H31.5156V48.2822Z" fill="#D2E2EB"/>
<path d="M31.5156 55.7373H27.7461V59.4659H31.5156V55.7373Z" fill="#D2E2EB"/>
<path d="M54.1298 25.9124H50.3604V29.6409H54.1298V25.9124Z" fill="#D2E2EB"/>
<path d="M54.1298 40.825H50.3604V44.5535H54.1298V40.825Z" fill="#E3E3E3"/>
<path d="M54.1298 33.3694H50.3604V37.098H54.1298V33.3694Z" fill="#D2E2EB"/>
<path d="M42.8215 29.6414H39.052V33.3699H42.8215V29.6414Z" fill="#D2E2EB"/>
<path d="M54.1298 48.2822H50.3604V52.0108H54.1298V48.2822Z" fill="#D2E2EB"/>
<path d="M39.0539 33.3694H35.2844V37.098H39.0539V33.3694Z" fill="#D2E2EB"/>
<path d="M46.591 48.2822H42.8215V52.0108H46.591V48.2822Z" fill="#D2E2EB"/>
<path d="M39.0539 40.825H35.2844V44.5535H39.0539V40.825Z" fill="#D2E2EB"/>
<path d="M50.3608 22.1838H46.5913V25.9124H50.3608V22.1838Z" fill="#D2E2EB"/>
<path d="M39.0539 48.2822H35.2844V52.0108H39.0539V48.2822Z" fill="#D2E2EB"/>
<path d="M42.8215 22.1838H39.052V25.9124H42.8215V22.1838Z" fill="#D2E2EB"/>
<path d="M35.2846 37.0964H31.5151V40.825H35.2846V37.0964Z" fill="#D2E2EB"/>
<path d="M35.2846 44.5537H31.5151V48.2823H35.2846V44.5537Z" fill="#D2E2EB"/>
<path d="M35.2846 52.0107H31.5151V55.7393H35.2846V52.0107Z" fill="#D2E2EB"/>
<path d="M42.8215 52.0107H39.052V55.7393H42.8215V52.0107Z" fill="#D2E2EB"/>
<path d="M35.2846 29.6414H31.5151V33.3699H35.2846V29.6414Z" fill="#D2E2EB"/>
<path d="M50.3608 52.0107H46.5913V55.7393H50.3608V52.0107Z" fill="#D2E2EB"/>
<path d="M46.591 18.4573H42.8215V22.1859H46.591V18.4573Z" fill="#D2E2EB"/>
<path d="M39.0539 25.9124H35.2844V29.6409H39.0539V25.9124Z" fill="#D2E2EB"/>
<path d="M39.0798 97.1692L42.5629 100.666L46.046 97.1692V69.1109L42.6732 66.8313L39.0798 69.1109V97.1692Z" fill="#474748"/>
<path d="M36.094 103.086L42.5726 106.043L43.4704 103.086V99.1407C43.4704 98.6178 43.2605 98.1163 42.8867 97.7466C42.5129 97.3769 42.0059 97.1692 41.4773 97.1692H38.0832C37.5553 97.1702 37.0493 97.3784 36.6764 97.748C36.3035 98.1176 36.094 98.6185 36.094 99.1407V103.086Z" fill="#FB965D"/>
<path d="M49.0466 99.1407V103.086L45.7841 106.043L43.0595 103.086V99.1407C43.0595 98.6178 42.8495 98.1164 42.4757 97.7466C42.102 97.3769 41.595 97.1692 41.0664 97.1692H47.0457C47.3081 97.1682 47.5681 97.2184 47.8108 97.3171C48.0536 97.4157 48.2742 97.5608 48.4601 97.7439C48.646 97.9271 48.7935 98.1448 48.8941 98.3845C48.9948 98.6242 49.0466 98.8811 49.0466 99.1407Z" fill="#E97522"/>
<path d="M36.3358 63.1465L36.1907 63.1943V67.1373C36.1907 67.6602 36.4007 68.1616 36.7744 68.5314C37.1482 68.9011 37.6552 69.1088 38.1838 69.1088H46.9552C47.4838 69.1088 47.9908 68.9011 48.3645 68.5314C48.7383 68.1616 48.9483 67.6602 48.9483 67.1373V63.1943L48.807 63.1465H36.3358Z" fill="#FB965D"/>
<path d="M43.0325 63.1465L42.9667 63.1943V67.1373C42.9667 67.6602 42.7568 68.1616 42.383 68.5314C42.0092 68.9011 41.5022 69.1088 40.9736 69.1088H46.9549C47.4835 69.1088 47.9905 68.9011 48.3642 68.5314C48.738 68.1616 48.948 67.6602 48.948 67.1373V63.1943L48.8784 63.1465H43.0325Z" fill="#E97522"/>
<path opacity="0.2" d="M56.0867 31.5092C54.3218 35.0174 53.2792 38.8375 53.0194 42.7476C52.7597 46.6578 53.2879 50.58 54.5735 54.2865H60.5508C59.2643 50.5802 58.7355 46.6578 58.9953 42.7475C59.255 38.8372 60.2982 35.0171 62.064 31.5092L63.821 28.0083C63.9985 27.6562 64.1031 27.2725 64.1289 26.8799C64.1546 26.4872 64.1008 26.0934 63.9707 25.7216C63.8405 25.3497 63.6367 25.0073 63.3711 24.7144C63.1055 24.4214 62.7835 24.1839 62.4239 24.0156L52.3618 19.3223C51.8481 19.083 51.414 18.7038 51.1104 18.2292C50.8068 17.7546 50.6461 17.2043 50.6473 16.6426V12.9715C50.6468 12.4491 50.4369 11.9482 50.0637 11.5787C49.6904 11.2091 49.1843 11.001 48.6562 11H42.6731C43.2017 11 43.7086 11.2077 44.0824 11.5774C44.4562 11.9472 44.6662 12.4486 44.6662 12.9715V16.6484C44.665 17.21 44.8256 17.7604 45.1293 18.235C45.4329 18.7095 45.867 19.0887 46.3806 19.3281L56.4427 24.0214C56.8028 24.1891 57.1254 24.4263 57.3916 24.719C57.6578 25.0117 57.8623 25.354 57.9929 25.7259C58.1236 26.0978 58.1779 26.4918 58.1526 26.8847C58.1273 27.2776 58.0229 27.6616 57.8456 28.0141L56.0867 31.5092Z" fill="#A7C1CF" fill-opacity="0.48"/>
<path opacity="0.2" d="M53.7992 63.1944H25.3737C24.8857 63.19 24.4062 63.0675 23.9771 62.8375C23.548 62.6075 23.1824 62.2771 22.9123 61.875C22.6421 61.473 22.4757 61.0116 22.4275 60.5312C22.3792 60.0508 22.4507 59.5661 22.6356 59.1193L23.965 55.8654C24.1779 55.3435 24.3759 54.8165 24.5591 54.2844H54.6139C54.797 54.8165 54.9951 55.3435 55.2079 55.8654L56.5353 59.1193C56.7207 59.5659 56.7926 60.0506 56.7447 60.531C56.6968 61.0115 56.5305 61.4729 56.2605 61.8751C55.9905 62.2772 55.625 62.6077 55.1959 62.8377C54.7668 63.0677 54.2872 63.1902 53.7992 63.1944Z" fill="#8DCAEC" fill-opacity="0.4"/>
<path opacity="0.5" d="M59.7306 63.1944H53.7512C54.2415 63.1943 54.7243 63.0749 55.157 62.8467C55.5896 62.6185 55.9589 62.2886 56.2323 61.886C56.5057 61.4834 56.6748 61.0205 56.7247 60.538C56.7745 60.0555 56.7037 59.5683 56.5184 59.1193L55.1638 55.8654C54.9497 55.3435 54.7497 54.8165 54.5639 54.2844H60.5452C60.7297 54.8165 60.9296 55.3435 61.1451 55.8654L62.488 59.1193C62.6733 59.5683 62.7442 60.0555 62.6943 60.538C62.6444 61.0205 62.4753 61.4834 62.202 61.886C61.9286 62.2886 61.5593 62.6185 61.1266 62.8467C60.6939 63.0749 60.2112 63.1943 59.7209 63.1944H59.7306Z" fill="#96CFEF"/>
<path d="M29.1123 109H50.6413C50.9056 109 51.1591 108.896 51.346 108.711C51.5329 108.527 51.6379 108.276 51.6379 108.014V106.043C51.6381 105.654 51.561 105.27 51.4109 104.911C51.2607 104.552 51.0406 104.225 50.7629 103.951C50.4853 103.676 50.1556 103.458 49.7928 103.309C49.43 103.16 49.041 103.084 48.6483 103.084H31.1073C30.3139 103.084 29.553 103.396 28.9919 103.95C28.4309 104.505 28.1157 105.258 28.1157 106.043V108.014C28.1162 108.276 28.2214 108.526 28.4082 108.711C28.5949 108.896 28.8481 109 29.1123 109Z" fill="#474748"/>
<path d="M57.0212 106.043V108.014C57.0207 108.276 56.9156 108.526 56.7288 108.711C56.542 108.896 56.2888 109 56.0247 109H50.0453C50.3095 109 50.5627 108.896 50.7494 108.711C50.9362 108.526 51.0414 108.276 51.0419 108.014V106.043C51.0414 105.258 50.726 104.506 50.1651 103.951C49.6042 103.396 48.8436 103.084 48.0503 103.084H54.0316C54.8245 103.085 55.5846 103.397 56.1451 103.952C56.7056 104.506 57.0207 105.259 57.0212 106.043Z" fill="#585858"/>
<path d="M54.7089 34.4646H44.761C44.6044 34.4647 44.4501 34.5013 44.3104 34.5713C44.1708 34.6413 44.0498 34.7429 43.9571 34.8677C43.8644 34.9925 43.8028 35.1371 43.777 35.2899C43.7513 35.4426 43.7622 35.5992 43.8089 35.747L46.9979 45.8016C47.0616 46.0019 47.1883 46.1769 47.3595 46.3012C47.5307 46.4255 47.7375 46.4925 47.9499 46.4926H58.8441L54.7089 34.4646Z" fill="#4299D5"/>
<path d="M87.9927 34.4646H98.0026C98.1592 34.4647 98.3135 34.5013 98.4531 34.5713C98.5928 34.6413 98.7138 34.7429 98.8065 34.8677C98.8991 34.9925 98.9608 35.1371 98.9866 35.2899C99.0123 35.4426 99.0014 35.5992 98.9546 35.747L95.7657 45.8016C95.7019 46.0019 95.5752 46.1769 95.404 46.3012C95.2328 46.4255 95.026 46.4925 94.8137 46.4926H83.5615L87.9927 34.4646Z" fill="#4299D5"/>
<path d="M65.2234 34.4646H77.3831L80.4056 40.9054L74.5096 49.4058H65.3647L62.7214 40.0479L65.2234 34.4646Z" fill="#4299D5"/>
<path d="M59.192 52.6367L54.6118 34.4646H65.2235V36.2198C65.2277 37.0935 65.4246 37.9557 65.8006 38.7464C66.1765 39.537 66.7224 40.2369 67.4002 40.7972C68.0779 41.3575 68.8711 41.7647 69.7244 41.9903C70.5777 42.216 71.4705 42.2546 72.3405 42.1036C75.274 41.627 77.3832 39.0411 77.3832 36.1011V34.4646H81.9189L79.4266 52.6348C78.6724 55.6284 78.5166 58.7389 78.968 61.7916L82.2149 94.4532C82.2397 94.6194 82.2279 94.789 82.1804 94.9504C82.1329 95.1118 82.0509 95.2611 81.9398 95.3883C81.8287 95.5154 81.6912 95.6174 81.5366 95.6872C81.3821 95.7571 81.2142 95.7932 81.0443 95.793H55.9837C55.8147 95.7918 55.6478 95.7547 55.4945 95.6843C55.3411 95.6138 55.2048 95.5116 55.0948 95.3846C54.9847 95.2577 54.9035 95.1088 54.8566 94.9481C54.8096 94.7874 54.7981 94.6186 54.8227 94.4532L59.6603 61.7936C60.1117 58.7421 59.9559 55.6329 59.2017 52.6405L59.192 52.6367Z" fill="#6FC0F8"/>
<path d="M87.7957 94.4532C87.8204 94.6195 87.8086 94.7891 87.7612 94.9505C87.7137 95.1118 87.6316 95.2612 87.5205 95.3883C87.4094 95.5155 87.2719 95.6175 87.1173 95.6873C86.9628 95.7571 86.7949 95.7932 86.625 95.7931H80.6457C80.8156 95.7932 80.9836 95.7571 81.1381 95.6873C81.2926 95.6175 81.4301 95.5155 81.5412 95.3883C81.6523 95.2612 81.7344 95.1118 81.7819 94.9505C81.8294 94.7891 81.8412 94.6195 81.8164 94.4532L76.9789 61.7955C76.5269 58.743 76.682 55.6324 77.4355 52.6387L82.0177 34.4685H87.9969L83.4167 52.6387C82.6623 55.6323 82.5071 58.743 82.96 61.7955L87.7957 94.4532Z" fill="#4299D5"/>
<defs>
<filter id="filter0_d_13511_27265" x="-4" y="-14" width="93.1416" height="102.197" filterUnits="userSpaceOnUse" color-interpolation-filters="sRGB">
<feFlood flood-opacity="0" result="BackgroundImageFix"/>
<feColorMatrix in="SourceAlpha" type="matrix" values="0 0 0 0 0 0 0 0 0 0 0 0 0 0 0 0 0 0 127 0" result="hardAlpha"/>
<feOffset/>
<feGaussianBlur stdDeviation="12.5"/>
<feColorMatrix type="matrix" values="0 0 0 0 0.352188 0 0 0 0 0.518788 0 0 0 0 0.6125 0 0 0 0.25 0"/>
<feBlend mode="normal" in2="BackgroundImageFix" result="effect1_dropShadow_13511_27265"/>
<feBlend mode="normal" in="SourceGraphic" in2="effect1_dropShadow_13511_27265" result="shape"/>
</filter>
</defs>
</svg>
