<svg width="120" height="108" viewBox="0 0 120 108" fill="none" xmlns="http://www.w3.org/2000/svg">
<path d="M63.9947 108H58.2043L56.2748 107.812C56.0191 107.812 55.774 107.71 55.5932 107.529C55.4124 107.348 55.3106 107.103 55.3101 106.847V96.9897H64.7665L64.9538 100.08V107.034C64.9533 107.289 64.8523 107.534 64.6727 107.714C64.4931 107.895 64.2494 107.998 63.9947 108Z" fill="#696969"/>
<path d="M64.9593 96.9901V100.08H58.7774C58.624 100.081 58.4771 100.142 58.3686 100.25C58.2602 100.359 58.199 100.506 58.1985 100.659V108H56.0817C55.826 108 55.5809 107.898 55.4001 107.717C55.2192 107.536 55.1174 107.29 55.1169 107.034V96.9901L59.8751 96.1838L64.9593 96.9901Z" fill="#474748"/>
<path d="M65.7307 96.797H54.3448C53.7111 96.797 53.0837 96.6721 52.4983 96.4293C51.913 96.1866 51.3811 95.8308 50.9332 95.3822C50.4852 94.9337 50.13 94.4012 49.8876 93.8152C49.6453 93.2292 49.5208 92.6012 49.521 91.967V87.1389L60.1351 86.3176L70.7493 87.1389V92.162C70.75 92.7565 70.6401 93.3459 70.4252 93.9001C69.7283 95.7076 67.782 96.797 65.7307 96.797Z" fill="#696969"/>
<path d="M70.4233 93.9002C70.0736 94.8096 69.4568 95.5916 68.6542 96.1432C67.8516 96.6948 66.9009 96.9901 65.9274 96.9902H54.1518C53.5182 96.9904 52.8907 96.8657 52.3053 96.6232C51.7198 96.3807 51.1878 96.0251 50.7397 95.5767C50.2916 95.1284 49.9361 94.596 49.6935 94.0101C49.451 93.4242 49.3262 92.7962 49.3262 92.162V87.1389L50.9185 86.5295L52.4171 87.1389V92.162C52.4181 92.6227 52.6014 93.0642 52.9268 93.39C53.2523 93.7157 53.6934 93.8992 54.1537 93.9002H70.4233Z" fill="#474748"/>
<g filter="url(#filter0_d_13511_14208)">
<path d="M100.951 77.2877H19.1251C18.6133 77.2877 18.1225 77.0842 17.7607 76.722C17.3988 76.3598 17.1956 75.8686 17.1956 75.3564V18.7613L57.5334 17.9082L103.073 18.7613V74.1976L102.886 75.3564C102.886 75.6105 102.836 75.8621 102.739 76.0968C102.641 76.3314 102.499 76.5446 102.319 76.724C102.139 76.9034 101.926 77.0455 101.691 77.1423C101.456 77.239 101.205 77.2884 100.951 77.2877Z" fill="white"/>
</g>
<path d="M103.074 74.1976V75.5495C103.074 76.0617 102.871 76.5529 102.509 76.9151C102.147 77.2773 101.656 77.4808 101.144 77.4808H18.9327C18.4209 77.4808 17.9302 77.2773 17.5683 76.9151C17.2065 76.5529 17.0032 76.0617 17.0032 75.5495V18.7613L18.4625 17.9082L20.2833 18.7613V73.232C20.2838 73.488 20.3856 73.7333 20.5664 73.9143C20.7473 74.0952 20.9924 74.1971 21.2481 74.1976H103.074Z" fill="#D2E2EB"/>
<path d="M80.2046 48.4108C80.203 43.3751 78.3212 38.5219 74.9285 34.8035C71.5358 31.0851 66.8771 28.7701 61.8669 28.3126C61.2655 28.2583 60.6548 28.3764 60.0385 28.3764C48.8999 28.3764 40.3557 37.2677 40.3557 48.4164C40.3557 59.5652 48.8999 68.5952 60.0385 68.5952C62.6868 68.5954 65.3093 68.0735 67.756 67.0593C70.2028 66.045 72.426 64.5582 74.2987 62.6839C76.1713 60.8095 77.6567 58.5843 78.6701 56.1353C79.6834 53.6863 80.2049 51.0615 80.2046 48.4108Z" fill="#E97522"/>
<path d="M86.9591 39.2361H78.0066L77.8886 39.4236C76.2906 39.4236 75.1873 40.7192 75.1873 42.3205V45.0242H89.6604L89.8477 42.5136V42.1273C89.8462 41.361 89.5414 40.6264 89 40.0846C88.4586 39.5427 87.7248 39.2376 86.9591 39.2361Z" fill="#208DBE"/>
<path d="M89.8534 42.5192V45.0298L83.1227 45.4517L74.9944 45.0298V42.133C74.9944 41.3647 75.2993 40.6278 75.8421 40.0846C76.3849 39.5413 77.121 39.2361 77.8886 39.2361H78.0067V41.9398C78.0067 42.0935 78.0676 42.2409 78.1762 42.3495C78.2848 42.4582 78.432 42.5192 78.5855 42.5192H89.8534Z" fill="#7EB4D6"/>
<path d="M61.9674 68.5032C61.3324 68.5651 60.688 68.5951 60.0379 68.5951C54.6896 68.5951 49.5602 66.4686 45.7783 62.6832C41.9965 58.8979 39.8718 53.764 39.8718 48.4107C39.8718 43.0575 41.9965 37.9235 45.7783 34.1382C49.5602 30.3529 54.6896 28.2263 60.0379 28.2263C60.688 28.2263 61.3324 28.2563 61.9674 28.3182C56.9746 28.7966 52.3391 31.1202 48.9657 34.8353C45.5923 38.5505 43.7232 43.3905 43.7232 48.4107C43.7232 53.4309 45.5923 58.271 48.9657 61.9861C52.3391 65.7012 56.9746 68.0248 61.9674 68.5032Z" fill="#EE7E3B"/>
<path d="M91.7458 86.9455H28.3307C27.3072 86.9455 26.3257 86.5386 25.602 85.8142C24.8783 85.0899 24.4717 84.1074 24.4717 83.083V49.0855C24.4717 47.2855 25.5076 45.5811 27.173 45.148C27.4882 45.0672 27.8123 45.0263 28.1377 45.0261H91.9387C92.9622 45.0261 93.9437 45.4331 94.6674 46.1574C95.3911 46.8818 95.7977 47.8642 95.7977 48.8886V83.2762C95.7985 83.6019 95.7575 83.9264 95.6759 84.2418C95.2563 85.9068 93.5441 86.9455 91.7458 86.9455Z" fill="#696969"/>
<path d="M95.6758 84.2419C95.4622 85.0713 94.979 85.806 94.3025 86.3305C93.6259 86.8549 92.7943 87.1393 91.9385 87.1388H28.1376C27.1141 87.1388 26.1325 86.7318 25.4088 86.0075C24.6851 85.2831 24.2786 84.3007 24.2786 83.2763V48.8925C24.2784 48.0361 24.5626 47.2038 25.0865 46.5267C25.6104 45.8496 26.3443 45.366 27.1728 45.1519V83.2763C27.1733 83.5322 27.2751 83.7775 27.4559 83.9585C27.6368 84.1395 27.8819 84.2414 28.1376 84.2419H95.6758Z" fill="#474748"/>
<path d="M72.2931 81.1501H31.3764C31.2496 81.1503 31.124 81.1255 31.0069 81.0771C30.8897 81.0286 30.7833 80.9575 30.6936 80.8678C30.604 80.7781 30.533 80.6715 30.4846 80.5543C30.4362 80.437 30.4114 80.3113 30.4116 80.1845V51.9844C30.4114 51.8575 30.4362 51.7319 30.4846 51.6146C30.533 51.4973 30.604 51.3908 30.6936 51.3011C30.7833 51.2114 30.8897 51.1402 31.0069 51.0918C31.124 51.0434 31.2496 51.0186 31.3764 51.0188L32.5341 50.8313H72.486C72.7419 50.8313 72.9873 50.933 73.1682 51.1141C73.3491 51.2952 73.4508 51.5408 73.4508 51.7969V79.0257L73.2634 80.1845C73.2634 80.3117 73.2383 80.4378 73.1895 80.5553C73.1406 80.6728 73.0691 80.7795 72.9789 80.8693C72.8887 80.959 72.7817 81.03 72.664 81.0782C72.5463 81.1264 72.4202 81.1508 72.2931 81.1501Z" fill="white"/>
<path d="M73.4511 79.0255V80.3773C73.4511 80.6334 73.3494 80.8791 73.1685 81.0602C72.9876 81.2412 72.7422 81.343 72.4863 81.343H31.1894C31.0626 81.3432 30.937 81.3184 30.8199 81.27C30.7027 81.2215 30.5963 81.1504 30.5066 81.0607C30.417 80.971 30.3459 80.8644 30.2975 80.7472C30.2491 80.6299 30.2244 80.5042 30.2246 80.3773V51.7911C30.2244 51.6642 30.2491 51.5385 30.2975 51.4212C30.3459 51.304 30.417 51.1974 30.5066 51.1077C30.5963 51.018 30.7027 50.9469 30.8199 50.8984C30.937 50.85 31.0626 50.8252 31.1894 50.8254H32.54V78.4461C32.54 78.5998 32.601 78.7471 32.7096 78.8558C32.8181 78.9644 32.9653 79.0255 33.1189 79.0255H73.4511Z" fill="#E8E8E8"/>
<path d="M36.0109 63.8624C35.6273 63.8624 35.2595 63.7099 34.9883 63.4385C34.7171 63.167 34.5647 62.7988 34.5647 62.4149V58.5505C34.5647 57.6554 34.92 56.797 35.5523 56.1641C36.1847 55.5311 37.0423 55.1755 37.9366 55.1755H41.7975C42.1723 55.189 42.5273 55.3475 42.7876 55.6177C43.048 55.8879 43.1935 56.2486 43.1935 56.624C43.1935 56.9993 43.048 57.3601 42.7876 57.6302C42.5273 57.9004 42.1723 58.0589 41.7975 58.0724H37.9329C37.8052 58.0724 37.6828 58.1232 37.5925 58.2136C37.5022 58.3039 37.4515 58.4265 37.4515 58.5543V62.4187C37.45 62.8008 37.2978 63.1669 37.028 63.4373C36.7582 63.7076 36.3927 63.8604 36.0109 63.8624Z" fill="#E8E8E8"/>
<path d="M41.8014 76.9986H37.933C37.0387 76.9986 36.181 76.643 35.5487 76.01C34.9163 75.3771 34.561 74.5187 34.561 73.6236V69.7498C34.5745 69.3747 34.7329 69.0194 35.0028 68.7588C35.2727 68.4982 35.6331 68.3525 36.0082 68.3525C36.3832 68.3525 36.7436 68.4982 37.0135 68.7588C37.2834 69.0194 37.4418 69.3747 37.4553 69.7498V73.6142C37.4548 73.6775 37.4668 73.7402 37.4905 73.7989C37.5142 73.8575 37.5493 73.9109 37.5936 73.956C37.638 74.0011 37.6908 74.037 37.749 74.0617C37.8073 74.0864 37.8698 74.0993 37.933 74.0998H41.7939C42.1779 74.0998 42.5462 74.2525 42.8178 74.5243C43.0894 74.7961 43.2419 75.1648 43.2419 75.5492C43.2419 75.9336 43.0894 76.3022 42.8178 76.574C42.5462 76.8459 42.1779 76.9986 41.7939 76.9986H41.8014Z" fill="#E8E8E8"/>
<path d="M65.7309 76.9986H61.8719C61.4878 76.9986 61.1195 76.8459 60.848 76.574C60.5764 76.3022 60.4238 75.9336 60.4238 75.5492C60.4238 75.1648 60.5764 74.7961 60.848 74.5243C61.1195 74.2525 61.4878 74.0998 61.8719 74.0998H65.7309C65.8588 74.0998 65.9814 74.0491 66.072 73.9588C66.1626 73.8685 66.2137 73.7459 66.2142 73.6179V69.7498C66.2277 69.3747 66.3861 69.0194 66.656 68.7588C66.9259 68.4982 67.2863 68.3525 67.6613 68.3525C68.0364 68.3525 68.3968 68.4982 68.6667 68.7588C68.9366 69.0194 69.095 69.3747 69.1085 69.7498V73.6142C69.1085 74.5111 68.7527 75.3714 68.1194 76.006C67.4861 76.6406 66.627 76.9976 65.7309 76.9986Z" fill="#E8E8E8"/>
<path d="M67.661 63.8625C67.2774 63.8625 66.9096 63.71 66.6384 63.4385C66.3671 63.167 66.2148 62.7989 66.2148 62.415V58.5506C66.2143 58.4226 66.1631 58.3001 66.0726 58.2097C65.982 58.1194 65.8593 58.0687 65.7315 58.0687H61.8725C61.678 58.0757 61.4842 58.0434 61.3025 57.9738C61.1208 57.9042 60.955 57.7986 60.815 57.6634C60.675 57.5282 60.5636 57.3662 60.4876 57.1869C60.4115 57.0077 60.3723 56.815 60.3723 56.6203C60.3723 56.4256 60.4115 56.2328 60.4876 56.0536C60.5636 55.8744 60.675 55.7123 60.815 55.5771C60.955 55.442 61.1208 55.3364 61.3025 55.2668C61.4842 55.1971 61.678 55.1648 61.8725 55.1718H65.7315C66.6258 55.1718 67.4834 55.5274 68.1158 56.1604C68.7481 56.7933 69.1034 57.6517 69.1034 58.5468V62.4112C69.1039 62.795 68.9523 63.1633 68.6819 63.4353C68.4115 63.7074 68.0444 63.861 67.661 63.8625Z" fill="#E8E8E8"/>
<path d="M90.0463 75.9379C90.0465 74.773 89.671 73.6393 88.9757 72.7052C88.2804 71.7711 87.3024 71.0866 86.1873 70.7535C85.6983 70.6072 85.1794 70.7235 84.6437 70.7235C81.6595 70.7235 79.4321 72.951 79.4321 75.9379C79.4321 78.9248 81.6595 81.1523 84.6437 81.1523C85.1794 81.1523 85.6983 81.2685 86.1873 81.1223C87.3024 80.7892 88.2804 80.1047 88.9757 79.1706C89.671 78.2365 90.0465 77.1027 90.0463 75.9379Z" fill="#208DBE"/>
<path d="M86.1876 81.1185C85.3808 81.3601 84.5287 81.4095 83.6994 81.263C82.8701 81.1165 82.0864 80.778 81.411 80.2746C80.7356 79.7712 80.187 79.1167 79.8091 78.3634C79.4312 77.6102 79.2344 76.7789 79.2344 75.936C79.2344 75.0931 79.4312 74.2618 79.8091 73.5086C80.187 72.7553 80.7356 72.1008 81.411 71.5974C82.0864 71.094 82.8701 70.7555 83.6994 70.609C84.5287 70.4624 85.3808 70.5119 86.1876 70.7535C85.0723 71.086 84.0941 71.77 83.3986 72.7038C82.703 73.6376 82.3272 74.7712 82.3272 75.936C82.3272 77.1008 82.703 78.2344 83.3986 79.1682C84.0941 80.102 85.0723 80.786 86.1876 81.1185Z" fill="#A2CDE8"/>
<path d="M90.0466 64.6354H79.2395C78.8647 64.6219 78.5098 64.4634 78.2494 64.1932C77.989 63.923 77.8435 63.5623 77.8435 63.1869C77.8435 62.8116 77.989 62.4508 78.2494 62.1807C78.5098 61.9105 78.8647 61.752 79.2395 61.7385H90.0466C90.241 61.7315 90.4348 61.7638 90.6165 61.8334C90.7982 61.903 90.964 62.0086 91.104 62.1438C91.244 62.279 91.3554 62.441 91.4315 62.6203C91.5075 62.7995 91.5467 62.9922 91.5467 63.1869C91.5467 63.3816 91.5075 63.5744 91.4315 63.7536C91.3554 63.9328 91.244 64.0949 91.104 64.2301C90.964 64.3652 90.7982 64.4708 90.6165 64.5404C90.4348 64.6101 90.241 64.6424 90.0466 64.6354Z" fill="#89C3E8"/>
<path d="M90.0466 58.8412H79.2395C78.8647 58.8277 78.5098 58.6692 78.2494 58.399C77.989 58.1288 77.8435 57.7681 77.8435 57.3927C77.8435 57.0174 77.989 56.6566 78.2494 56.3865C78.5098 56.1163 78.8647 55.9578 79.2395 55.9443H90.0466C90.241 55.9373 90.4348 55.9696 90.6165 56.0392C90.7982 56.1089 90.964 56.2144 91.104 56.3496C91.244 56.4848 91.3554 56.6468 91.4315 56.8261C91.5075 57.0053 91.5467 57.198 91.5467 57.3927C91.5467 57.5875 91.5075 57.7802 91.4315 57.9594C91.3554 58.1386 91.244 58.3007 91.104 58.4359C90.964 58.5711 90.7982 58.6766 90.6165 58.7463C90.4348 58.8159 90.241 58.8482 90.0466 58.8412Z" fill="#89C3E8"/>
<path d="M51.9324 73.9876C55.8783 73.9876 59.0772 73.5628 59.0772 73.0388C59.0772 72.5149 55.8783 72.0901 51.9324 72.0901C47.9864 72.0901 44.7876 72.5149 44.7876 73.0388C44.7876 73.5628 47.9864 73.9876 51.9324 73.9876Z" fill="#E8E8E8"/>
<path d="M58.7826 66.0846C58.7824 64.5089 58.2477 62.98 57.2663 61.748C56.2849 60.516 54.9147 59.6539 53.38 59.3027C52.8836 59.1902 52.3666 59.3234 51.8364 59.3234C47.9999 59.3234 45.0813 62.2446 45.0813 66.0846C45.0813 69.9246 47.9999 72.8459 51.8364 72.8459C52.316 72.8459 52.7843 72.9902 53.2358 72.8965C54.8025 72.5736 56.2098 71.7196 57.2204 70.4786C58.2309 69.2376 58.7827 67.6856 58.7826 66.0846Z" fill="#E97522"/>
<path d="M53.3805 72.8664C52.3633 73.0975 51.3071 73.0964 50.2904 72.8631C49.2737 72.6299 48.3224 72.1705 47.5073 71.5191C46.6921 70.8676 46.034 70.0408 45.5817 69.1C45.1294 68.1592 44.8945 67.1286 44.8945 66.0845C44.8945 65.0405 45.1294 64.0098 45.5817 63.069C46.034 62.1282 46.6921 61.3014 47.5073 60.65C48.3224 59.9985 49.2737 59.5391 50.2904 59.3059C51.3071 59.0726 52.3633 59.0715 53.3805 59.3026C51.8455 59.6533 50.4749 60.5152 49.4933 61.7473C48.5116 62.9794 47.977 64.5086 47.977 66.0845C47.977 67.6604 48.5116 69.1896 49.4933 70.4217C50.4749 71.6538 51.8455 72.5158 53.3805 72.8664Z" fill="#EE7E3B"/>
<path d="M104.424 18.5625H15.6517C13.7859 18.5625 12.2686 17.25 12.2686 15.375C12.2686 13.6875 13.3401 12.2681 14.9755 12.0338C15.1337 12.0113 15.2933 12 15.4532 12H104.622C105.123 12.0005 105.618 12.1124 106.07 12.3275C106.522 12.5426 106.921 12.8556 107.238 13.2438C107.555 13.6321 107.781 14.0859 107.901 14.5725C108.021 15.0591 108.032 15.5663 107.933 16.0575C107.62 17.5988 106.057 18.5625 104.424 18.5625Z" fill="#6B6B6B"/>
<path d="M107.925 16.0556C107.771 16.8187 107.358 17.5049 106.756 17.998C106.154 18.4911 105.4 18.7607 104.623 18.7613H15.4533C14.5866 18.7822 13.7451 18.4682 13.1037 17.8845C12.4622 17.3008 12.07 16.4921 12.0085 15.6266C11.947 14.761 12.221 13.905 12.7735 13.2363C13.3261 12.5676 14.1147 12.1376 14.9756 12.0356V12.6769C14.9756 13.572 15.3309 14.4304 15.9633 15.0634C16.5956 15.6963 17.4533 16.0519 18.3476 16.0519L107.925 16.0556Z" fill="#474748"/>
<defs>
<filter id="filter0_d_13511_14208" x="-6.80444" y="-6.0918" width="133.878" height="107.379" filterUnits="userSpaceOnUse" color-interpolation-filters="sRGB">
<feFlood flood-opacity="0" result="BackgroundImageFix"/>
<feColorMatrix in="SourceAlpha" type="matrix" values="0 0 0 0 0 0 0 0 0 0 0 0 0 0 0 0 0 0 127 0" result="hardAlpha"/>
<feOffset/>
<feGaussianBlur stdDeviation="12"/>
<feColorMatrix type="matrix" values="0 0 0 0 0.816667 0 0 0 0 0.816667 0 0 0 0 0.816667 0 0 0 0.25 0"/>
<feBlend mode="normal" in2="BackgroundImageFix" result="effect1_dropShadow_13511_14208"/>
<feBlend mode="normal" in="SourceGraphic" in2="effect1_dropShadow_13511_14208" result="shape"/>
</filter>
</defs>
</svg>
