<svg width="102" height="104" viewBox="0 0 102 104" fill="none" xmlns="http://www.w3.org/2000/svg">
<path d="M65.9145 65.8027L64.2431 60.7182C64.2002 60.5699 64.1573 60.4216 64.1573 60.2521L63.4502 33.3464V36.0794C63.4502 37.0539 63.2788 38.0496 62.9359 38.9818L59.4216 48.8755L60.4288 50.3584C62.9359 54.0236 64.2645 58.3242 64.2645 62.7308C64.2645 63.7901 64.1573 64.8494 63.9431 65.8663L62.9359 70.7602H64.5216C65.3359 70.7602 66.0002 70.1034 66.0002 69.2983V66.5442C66.0431 66.29 66.0002 66.0358 65.9145 65.8027Z" fill="#FFCBC9"/>
<path d="M69.2999 34.2354C68.8499 30.8457 66.1928 31.1635 65.7428 27.795C65.2928 24.4053 67.9499 24.0875 67.4999 20.6978C67.0499 17.3081 64.3928 17.6259 63.9428 14.2574V12.2024H39.0857V14.2574C38.6357 17.6471 35.9785 17.3293 35.5285 20.6978C35.0785 24.0875 37.7357 24.4053 37.2857 27.795C36.8357 31.1847 34.1785 30.8669 33.7285 34.2354V35.0404C33.7285 36.6294 35.0785 37.9005 36.7285 37.9005H65.8713C67.7571 37.9005 69.2785 36.4387 69.2785 34.6591L69.2999 34.2354Z" fill="#474748"/>
<path d="M63.0635 23.346C64.1349 20.9944 57.8349 13.9608 56.2064 12.2024H54.8135L48.0421 14.9565L39.5564 17.1598C39.5564 17.1598 42.7921 24.6595 42.4278 26.6721C42.0635 28.6848 38.6778 32.0745 41.2707 36.0997C41.6993 36.7777 42.5778 37.3709 43.7135 37.9005H64.5635C66.7492 33.96 65.7207 32.0533 64.2849 30.3161C62.4849 28.1128 61.8207 26.0578 63.0635 23.346Z" fill="#30302F"/>
<path d="M50.8713 69.7219H52.0928H59.7856L57.9642 82.857L56.5928 90.2084L56.7428 91.649L56.057 95.6107C55.5856 95.3988 55.0713 95.2717 54.5142 95.2717H52.4785C52.0713 95.2717 51.6856 95.3353 51.3213 95.4624L50.8928 91.6278L51.1928 90.0389L50.8928 82.7722L50.8713 69.7219Z" fill="#FFCBC9"/>
<path d="M49.5856 96.1183L49.6928 95.9064L50.8499 91.627L51.2785 95.4827L51.5999 97.0505H55.7142L56.0142 95.5887L56.6999 91.627L57.4499 95.9064L57.5356 96.1183C57.6428 96.3725 57.707 96.6267 57.707 96.9022C57.7499 97.9614 56.8928 98.8512 55.8213 98.8512H51.2571C50.2071 98.8512 49.3713 98.025 49.3713 96.9869C49.3713 96.6903 49.4571 96.3937 49.5856 96.1183Z" fill="#F9A7A7"/>
<path d="M49.3715 96.9445C49.3715 96.6479 49.4572 96.3725 49.5858 96.1183L49.693 95.9064L50.8501 91.627L51.2787 95.4615C51.6429 95.3344 52.0287 95.2709 52.4358 95.2709H54.4715C55.0287 95.2709 55.5429 95.398 56.0144 95.6098L56.7001 91.6481L57.4501 95.9276L57.5358 96.1395C57.6429 96.3937 57.7072 96.6479 57.7072 96.9233C57.7072 97.0293 57.7072 97.114 57.6858 97.2199C57.6858 97.2411 57.6858 97.2411 57.6858 97.2623C57.6858 97.3259 57.6644 97.3894 57.6429 97.4742C57.6215 97.5165 57.6215 97.5801 57.6001 97.6225C57.5787 97.686 57.5572 97.7496 57.5144 97.8131C57.4929 97.8555 57.4715 97.8979 57.4501 97.9614C57.4287 98.025 57.3858 98.0674 57.3429 98.1097C57.3001 98.1521 57.2787 98.1945 57.2358 98.2368C57.1929 98.2792 57.1501 98.3216 57.1072 98.364C57.0644 98.4063 57.0215 98.4487 56.9572 98.4911C56.9144 98.5334 56.8715 98.5546 56.8287 98.597C56.7644 98.6394 56.7215 98.6606 56.6572 98.7029C56.6144 98.7241 56.5715 98.7453 56.5287 98.7665C56.4644 98.7877 56.3787 98.8089 56.2929 98.83C56.2501 98.8512 56.2072 98.8512 56.1644 98.8724C56.0358 98.8936 55.9287 98.9148 55.8001 98.9148H51.2358C50.8501 98.9148 50.4858 98.7877 50.1858 98.597C49.993 98.4699 49.8215 98.3004 49.6715 98.0886C49.4572 97.792 49.3501 97.4318 49.3501 97.0505C49.3715 96.9657 49.3715 96.9657 49.3715 96.9445Z" fill="#404040"/>
<path d="M53.1425 74.8062H51.9211H44.2283L46.0497 87.9412L47.4211 95.2926L47.2711 96.7332L47.9568 100.695C48.4283 100.483 48.9426 100.356 49.4997 100.356H51.5354C51.9426 100.356 52.3283 100.42 52.6925 100.547L53.1211 96.712L52.8211 95.1231L53.1211 87.8565L53.1425 74.8062Z" fill="#FFCBC9"/>
<path d="M59.6573 30.1473H56.0144V27.5203C54.7501 28.0499 53.3787 28.3465 51.9216 28.3465C50.4644 28.3465 49.093 28.0499 47.8287 27.5203V30.1473H44.1859C42.0859 30.1473 40.3716 31.5879 40.3716 33.3675V36.0792C40.3716 37.0538 40.543 38.0495 40.8859 38.9817L44.4001 48.8753H51.9216H59.443L62.9573 38.9817C63.3001 38.0495 63.4716 37.0538 63.4716 36.0792V33.3463C63.4716 31.5667 61.7573 30.1473 59.6573 30.1473Z" fill="#FFCBC9"/>
<path d="M62.4 14.2579C62.3786 14.2579 62.3572 14.2579 62.3357 14.2579V13.3045C62.3357 7.66915 57.6857 3.11426 51.9215 3.11426C46.1572 3.11426 41.5072 7.69034 41.5072 13.3045V14.2579C41.4858 14.2579 41.4643 14.2579 41.4429 14.2579C39.6858 14.2579 38.2715 15.6561 38.2715 17.3721C38.2715 19.0882 39.6858 20.4864 41.4429 20.4864C41.55 20.4864 41.6786 20.4864 41.7858 20.4652C42.8572 24.9778 46.9929 28.3463 51.9215 28.3463C56.85 28.3463 60.9857 24.9778 62.0572 20.4652C62.1643 20.4864 62.2929 20.4864 62.4 20.4864C64.1572 20.4864 65.5715 19.0882 65.5715 17.3721C65.5715 15.6349 64.1572 14.2579 62.4 14.2579Z" fill="#FFCBC9"/>
<path d="M51.9215 28.3248C56.8501 28.3248 60.9858 24.9563 62.0572 20.4438C62.1644 20.4649 62.2929 20.4649 62.4001 20.4649C64.1572 20.4649 65.5715 19.0667 65.5715 17.3507C65.5715 15.6346 64.1572 14.2364 62.4001 14.2364C62.3787 14.2364 62.3572 14.2364 62.3358 14.2364V13.283C62.3358 7.64767 57.6858 3.09277 51.9215 3.09277C50.3787 3.09277 48.9001 3.43174 47.5715 4.02494L48.5787 13.6856C54.043 13.9186 55.3287 11.6941 55.3287 11.6941C55.3287 11.6941 60.4287 12.6051 60.6429 16.5668C60.8572 20.5285 58.2215 28.3248 51.9215 28.3248Z" fill="#E6B8B8"/>
<g opacity="0.6">
<path opacity="0.6" d="M51.278 95.4624C51.6423 95.3351 52.028 95.2715 52.4352 95.2715H51.2566L51.278 95.4624Z" fill="#E6B8B8"/>
<path opacity="0.6" d="M59.7638 69.7209H58.4138L56.5924 82.856L55.2209 90.2074L55.3709 91.648L54.7495 95.2919C55.2209 95.3131 55.6495 95.4402 56.0567 95.6309L56.7424 91.6692L56.5924 90.2286L57.9638 82.8772L59.7638 69.7209Z" fill="#E6B8B8"/>
</g>
<path d="M60.4503 50.3588L59.4432 48.8758L62.9575 38.9822C63.3003 38.05 63.4718 37.0543 63.4718 36.0797V33.3468C63.4718 33.1349 63.4503 32.9443 63.4075 32.7324H40.4789C40.4361 32.9231 40.4146 33.1349 40.4146 33.3468V36.0797C40.4146 37.0543 40.5861 38.05 40.9289 38.9822L44.4432 48.8758L43.4361 50.3588C40.9289 54.0239 39.6003 58.3246 39.6003 62.7312C39.6003 63.7905 39.7075 64.8498 39.9218 65.8667L41.7432 74.7858H51.986H62.2289L64.0503 65.8667C64.2646 64.8286 64.3717 63.7693 64.3717 62.7312C64.3075 58.3246 62.9575 54.0027 60.4503 50.3588Z" fill="#83BCDC"/>
<path d="M47.2291 13.813H39.5149C39.0434 13.813 38.6577 13.4317 38.6577 12.9656V8.15645C38.6577 3.64392 42.3434 0 46.9077 0H50.9791C53.0363 0 54.7077 1.65248 54.7077 3.68629V6.39804C54.7291 10.4869 51.3648 13.813 47.2291 13.813Z" fill="#474748"/>
<path d="M63.4933 12.7111H61.9719C57.9647 12.7111 54.729 9.5121 54.729 5.55039V3.17761C54.729 1.94885 55.7361 0.953125 56.979 0.953125H57.429C61.2647 0.953125 64.3504 4.02503 64.3504 7.79607V11.8637C64.3504 12.3298 63.9647 12.7111 63.4933 12.7111Z" fill="#474748"/>
<path d="M54.4069 101.203L54.2998 100.992L53.1426 96.7122L52.714 100.568L52.3926 102.136H48.2783L47.9783 100.674L47.2926 96.7122L46.5426 100.992L46.4569 101.203C46.3498 101.458 46.2855 101.712 46.2855 101.987C46.2426 103.047 47.0998 103.936 48.1712 103.936H52.7355C53.7855 103.936 54.6212 103.11 54.6212 102.072C54.6212 101.776 54.5569 101.479 54.4069 101.203Z" fill="#F9A7A7"/>
<path d="M54.6215 102.03C54.6215 101.733 54.5358 101.458 54.4073 101.203L54.3001 100.992L53.143 96.7122L52.7144 100.547C52.3501 100.42 51.9644 100.356 51.5573 100.356H49.5001C48.943 100.356 48.4287 100.483 47.9573 100.695L47.2715 96.7333L46.5215 101.013L46.4358 101.225C46.3287 101.479 46.2644 101.733 46.2644 102.009C46.2644 102.114 46.2644 102.199 46.2858 102.305C46.2858 102.326 46.2858 102.326 46.2858 102.348C46.2858 102.411 46.3073 102.475 46.3287 102.559C46.3501 102.602 46.3501 102.665 46.3715 102.708C46.393 102.771 46.4144 102.835 46.4573 102.898C46.4787 102.941 46.5001 102.983 46.5215 103.047C46.543 103.11 46.5858 103.153 46.6287 103.195C46.6715 103.237 46.693 103.28 46.7358 103.322C46.7787 103.364 46.8215 103.407 46.8644 103.449C46.9073 103.492 46.9501 103.534 47.0144 103.576C47.0573 103.619 47.1001 103.64 47.143 103.682C47.2073 103.725 47.2501 103.746 47.3144 103.788C47.3573 103.809 47.4001 103.831 47.443 103.852C47.5073 103.873 47.593 103.894 47.6787 103.915C47.7215 103.936 47.7644 103.936 47.8073 103.958C47.9358 103.979 48.043 104 48.1715 104H52.7358C53.1215 104 53.4858 103.873 53.7858 103.682C53.9787 103.555 54.1501 103.386 54.3001 103.174C54.5144 102.877 54.6215 102.517 54.6215 102.136C54.6215 102.051 54.6215 102.051 54.6215 102.03Z" fill="#404040"/>
<path d="M39.9641 22.6898C39.5999 22.6898 39.3213 22.4144 39.3213 22.0542V19.0035C39.3213 18.6433 39.5999 18.3679 39.9641 18.3679C40.3284 18.3679 40.607 18.6433 40.607 19.0035V22.0542C40.607 22.3932 40.3284 22.6898 39.9641 22.6898Z" fill="#E0EBFC"/>
<path d="M63.0642 22.6898C62.7 22.6898 62.4214 22.4144 62.4214 22.0542V19.0035C62.4214 18.6433 62.7 18.3679 63.0642 18.3679C63.4285 18.3679 63.7071 18.6433 63.7071 19.0035V22.0542C63.7071 22.3932 63.4071 22.6898 63.0642 22.6898Z" fill="#E0EBFC"/>
<path d="M39.9641 22.6898C39.5999 22.6898 39.3213 22.4144 39.3213 22.0542V19.0035C39.3213 18.6433 39.5999 18.3679 39.9641 18.3679C40.3284 18.3679 40.607 18.6433 40.607 19.0035V22.0542C40.607 22.3932 40.3284 22.6898 39.9641 22.6898Z" fill="white"/>
<path d="M63.0642 22.6898C62.7 22.6898 62.4214 22.4144 62.4214 22.0542V19.0035C62.4214 18.6433 62.7 18.3679 63.0642 18.3679C63.4285 18.3679 63.7071 18.6433 63.7071 19.0035V22.0542C63.7071 22.3932 63.4071 22.6898 63.0642 22.6898Z" fill="white"/>
<path d="M43.393 50.3579L43.4145 50.3155L39.3645 44.4895C39.1502 44.1929 39.193 43.7691 39.493 43.5149L41.8073 41.5235L40.9073 38.9812C40.5645 38.049 40.393 37.0533 40.393 36.0788V33.3458C40.393 33.134 40.4145 32.9433 40.4573 32.7315H40.9716L40.6716 32.2654L32.6145 41.0998C31.5859 42.2226 31.5859 43.9386 32.6359 45.0403L39.1716 52.1163C39.3645 52.3281 39.4288 52.6247 39.3002 52.9001L38.293 55.2941C37.9288 56.1839 37.8859 57.1584 38.1859 58.0694L39.4716 62.0523H39.5573C39.6859 57.8999 41.0145 53.8323 43.393 50.3579Z" fill="#FFCBC9"/>
<path d="M84.7073 16.5674C84.7287 16.6521 84.7287 16.7581 84.7287 16.8428V25.0416C84.7287 25.1475 84.7073 25.2323 84.7073 25.3382H90.4287V16.5674H84.7073Z" fill="#30302F"/>
<path d="M92.3573 32.3928H100.072C101.143 32.3928 102 31.5453 102 30.4861V11.758C102 10.6987 101.143 9.85132 100.072 9.85132H92.3573C91.2859 9.85132 90.4287 10.6987 90.4287 11.758V30.4649C90.4287 31.5242 91.2859 32.3928 92.3573 32.3928Z" fill="#6B6B6B"/>
<path d="M83.2065 15.3171H76.028C75.1708 15.3171 74.4851 15.9951 74.4851 16.8425V25.0413C74.4851 25.8887 75.1708 26.5667 76.028 26.5667H83.2065C84.0637 26.5667 84.7494 25.8887 84.7494 25.0413V16.8425C84.7494 15.9951 84.0422 15.3171 83.2065 15.3171Z" fill="#6B6B6B"/>
<path d="M93.2141 9.85134H99.1927V7.69041C99.1927 7.2667 98.8498 6.92773 98.4212 6.92773H93.9855C93.557 6.92773 93.2141 7.2667 93.2141 7.69041V9.85134Z" fill="#ED6E24"/>
<path d="M90.4285 25.3382H87.4285V16.5674H90.4285V25.3382Z" fill="#30302F"/>
<path d="M17.2927 50.7185C17.2713 50.8032 17.2713 50.9092 17.2713 51.0151V59.2139C17.2713 59.3198 17.2927 59.4046 17.2927 59.5105H11.5713V50.7397L17.2927 50.7185Z" fill="#30302F"/>
<path d="M9.64285 66.5435H1.92857C0.857142 66.5435 0 65.696 0 64.6368V45.9299C0 44.8706 0.857142 44.0232 1.92857 44.0232H9.64285C10.7143 44.0232 11.5714 44.8706 11.5714 45.9299V64.6368C11.5714 65.6748 10.7143 66.5435 9.64285 66.5435Z" fill="#6B6B6B"/>
<path d="M18.8138 49.4675H25.9924C26.8495 49.4675 27.5353 50.1455 27.5353 50.9929V59.1917C27.5353 60.0391 26.8495 60.7171 25.9924 60.7171H18.8138C17.9567 60.7171 17.271 60.0391 17.271 59.1917V50.9929C17.2496 50.1455 17.9567 49.4675 18.8138 49.4675Z" fill="#6B6B6B"/>
<path d="M8.78618 44.0025H2.80762V41.8415C2.80762 41.4178 3.15047 41.0789 3.57904 41.0789H8.01475C8.44333 41.0789 8.78618 41.4178 8.78618 41.8415V44.0025Z" fill="#ED6E24"/>
<path d="M11.5713 50.7185H14.5713V59.4893H11.5713V50.7185Z" fill="#30302F"/>
<path d="M13.3923 44.0875V44.1087C13.3066 44.4477 13.4995 44.7866 13.8423 44.8714L15.7495 45.3798C16.0923 45.4646 16.4352 45.2739 16.5209 44.9349V44.9137C16.6066 44.5748 16.4138 44.2358 16.0709 44.1511L14.1638 43.6426C13.8209 43.5579 13.4781 43.7485 13.3923 44.0875Z" fill="#83BCDC" fill-opacity="0.42"/>
<path d="M13.05 41.0148C12.8572 40.697 12.9643 40.3157 13.2643 40.125L14.9786 39.1505C15.2786 38.981 15.6643 39.0869 15.8572 39.3835L15.8786 39.4047C16.05 39.7013 15.9429 40.0826 15.6429 40.2733L13.9286 41.2478C13.6072 41.4173 13.2214 41.3326 13.05 41.0148Z" fill="#83BCDC" fill-opacity="0.42"/>
<path d="M10.5425 39.2359H10.5211C10.1782 39.1512 9.98534 38.791 10.0711 38.4733L10.5853 36.5877C10.6711 36.2488 11.0353 36.0581 11.3568 36.1428H11.3782C11.7211 36.2276 11.9139 36.5877 11.8282 36.9055L11.3139 38.791C11.2282 39.1088 10.8853 39.3207 10.5425 39.2359Z" fill="#83BCDC" fill-opacity="0.42"/>
<path d="M88.6071 9.93718V9.95836C88.6928 10.2973 88.5 10.6363 88.1571 10.721L86.25 11.2295C85.9071 11.3142 85.5642 11.1236 85.4785 10.7846V10.7634C85.3928 10.4244 85.5857 10.0855 85.9285 10.0007L87.8357 9.49228C88.1785 9.38635 88.5214 9.59821 88.6071 9.93718Z" fill="#83BCDC" fill-opacity="0.42"/>
<path d="M88.9494 6.86367C89.1423 6.54589 89.0352 6.16455 88.7352 5.97388L87.0209 4.99934C86.7209 4.82986 86.3352 4.93579 86.1423 5.23238L86.1209 5.25357C85.9494 5.55017 86.0566 5.93151 86.3566 6.12218L88.0709 7.09671C88.3923 7.2662 88.778 7.16027 88.9494 6.86367Z" fill="#83BCDC" fill-opacity="0.42"/>
<path d="M91.4571 5.06358H91.4785C91.8214 4.97884 92.0143 4.63987 91.9285 4.3009L91.4143 2.41538C91.3285 2.07641 90.9857 1.88574 90.6428 1.97048H90.6214C90.2785 2.05523 90.0857 2.3942 90.1714 2.73317L90.6857 4.61868C90.7714 4.95765 91.1143 5.14832 91.4571 5.06358Z" fill="#83BCDC" fill-opacity="0.42"/>
<path d="M62.1645 74.8062L63.9859 65.887C64.2002 64.8489 64.3074 63.7897 64.3074 62.7516C64.3074 58.345 62.9788 54.0231 60.4717 50.3792L59.4645 48.8962L62.9788 39.0026C63.3216 38.0704 63.4931 37.0747 63.4931 36.1001V34.9137L57.2788 33.3672C54.7502 42.71 53.5717 48.8962 53.5717 48.8962C53.5717 48.8962 58.0717 58.5145 57.7502 62.8787C57.4288 67.2217 56.8288 74.8273 44.2717 74.8273H44.2502H51.9645H62.1645V74.8062Z" fill="#306694"/>
<path d="M54.2564 35.9306L63.4707 35.5917V33.346C63.4707 31.5664 61.7564 30.1258 59.6564 30.1258H56.0135V27.4988C54.8778 27.986 53.6135 28.2615 52.3064 28.3038C52.3064 31.1427 55.3493 31.6723 56.3778 31.6723C57.4278 31.6723 57.2564 33.007 57.2564 33.007L54.2564 35.9306Z" fill="#E6B8B8"/>
<path d="M38.8284 32.7324H64.1141C64.5212 32.7324 64.8855 33.0502 65.0141 33.5163L66.2141 38.5796C66.3855 39.3423 65.8284 40.0414 65.1641 39.9143L38.7427 34.7662C38.5284 34.7239 38.3784 34.512 38.3784 34.279V33.2409C38.3784 32.9655 38.5713 32.7324 38.8284 32.7324Z" fill="white"/>
<g opacity="0.6">
<path opacity="0.6" d="M53.1436 74.8071H51.9221H51.4936V87.8786L51.1936 95.1453L51.4936 96.7342L51.0864 100.357H51.5364C51.9436 100.357 52.3293 100.42 52.6936 100.548L53.1221 96.713L52.8221 95.1241L53.1221 87.8574V74.8071H53.1436Z" fill="#E6B8B8"/>
<path opacity="0.6" d="M47.9788 100.696C48.4503 100.485 48.9645 100.357 49.5217 100.357H47.9146L47.9788 100.696Z" fill="#E6B8B8"/>
</g>
<path d="M66.2141 38.5796L65.0141 33.5163C64.907 33.0502 64.5427 32.7324 64.1141 32.7324H59.4641C59.8713 32.7324 60.2355 33.0502 60.3641 33.5163L61.5641 38.5796C61.607 38.7915 61.607 39.0245 61.5427 39.2152L65.1641 39.9143C65.8284 40.0626 66.3855 39.3423 66.2141 38.5796Z" fill="#C3D3ED"/>
<path d="M43.4147 50.3163L39.3647 44.4903C39.1504 44.1725 39.1932 43.77 39.4932 43.5158L41.8075 41.5031L41.1218 39.5964C39.6004 40.4439 36.8147 42.0751 36.9004 43.1768C37.0075 44.681 41.8718 50.4223 41.4647 52.0324C41.0575 53.6425 38.7861 55.7398 39.7289 60.1464C40.1361 56.6296 41.4004 53.2611 43.4147 50.3163Z" fill="#E6B8B8"/>
<path d="M51.6856 103.936H52.7356C53.1213 103.936 53.4856 103.809 53.7856 103.619C53.9784 103.492 54.1499 103.322 54.2999 103.11C54.5142 102.814 54.6213 102.453 54.6213 102.072C54.6213 102.051 54.6213 102.051 54.6213 102.03C54.6213 101.733 54.5356 101.458 54.407 101.203L54.2999 100.992L53.1427 96.7122L52.7142 100.547C52.3499 100.42 51.9642 100.356 51.557 100.356H51.5142C51.8784 101.225 52.4784 102.962 51.6856 103.936Z" fill="#585858"/>
<path d="M56.2069 98.8105C56.2497 98.8105 56.2926 98.7893 56.3354 98.7681C56.4211 98.7469 56.4854 98.7257 56.5711 98.7045C56.614 98.6833 56.6569 98.6622 56.6997 98.641C56.764 98.6198 56.8283 98.5774 56.8711 98.535C56.914 98.5139 56.9569 98.4715 56.9997 98.4291C57.0426 98.3867 57.0854 98.3444 57.1497 98.302C57.1926 98.2596 57.2354 98.2173 57.2783 98.1749C57.3211 98.1325 57.3426 98.0902 57.3854 98.0478C57.4283 98.0054 57.4497 97.9419 57.4926 97.8995C57.514 97.8571 57.5354 97.8147 57.5569 97.7512C57.5783 97.6876 57.6211 97.6241 57.6426 97.5605C57.664 97.5181 57.664 97.4546 57.6854 97.4122C57.7069 97.3487 57.7283 97.2851 57.7283 97.2004C57.7283 97.1792 57.7283 97.1792 57.7283 97.158C57.7283 97.0732 57.7497 96.9673 57.7497 96.8614C57.7497 96.586 57.6854 96.3318 57.5783 96.0775L57.4926 95.8657L56.7426 91.5862L56.0569 95.5479C55.7354 95.3996 55.414 95.2937 55.0497 95.2513C55.0711 95.2725 55.0712 95.2937 55.114 95.3148C55.714 95.4208 55.5854 98.5986 54.6426 98.7893H55.8426C55.9497 98.8528 56.0783 98.8316 56.2069 98.8105Z" fill="#585858"/>
</svg>
