<svg width="120" height="105" viewBox="0 0 120 105" fill="none" xmlns="http://www.w3.org/2000/svg">
<path d="M81.4137 0H38.5861C36.396 0 34.6206 1.77542 34.6206 3.96552V88.0345C34.6206 90.2246 36.396 92 38.5861 92H81.4137C83.6038 92 85.3792 90.2246 85.3792 88.0345V3.96552C85.3792 1.77542 83.6038 0 81.4137 0Z" fill="#208DBE"/>
<path d="M34.6206 69.5913H85.3792V74.3499H34.6206V69.5913Z" fill="#4798CC"/>
<path d="M68.7243 76.1382H51.2761C49.086 76.1382 47.3105 77.9136 47.3105 80.1037V81.6899C47.3105 83.88 49.086 85.6554 51.2761 85.6554H68.7243C70.9144 85.6554 72.6899 83.88 72.6899 81.6899V80.1037C72.6899 77.9136 70.9144 76.1382 68.7243 76.1382Z" fill="#F2FAFF"/>
<g filter="url(#filter0_d_13511_2567)">
<path d="M104.017 11.1033H15.9828C14.8877 11.1033 14 11.991 14 13.086V67.8102C14 68.9052 14.8877 69.7929 15.9828 69.7929H104.017C105.112 69.7929 106 68.9052 106 67.8102V13.086C106 11.991 105.112 11.1033 104.017 11.1033Z" fill="white"/>
</g>
<path d="M14 57.1033V67.8102C14 68.336 14.2089 68.8404 14.5807 69.2122C14.9526 69.584 15.4569 69.7929 15.9828 69.7929H104.017C104.543 69.7929 105.047 69.584 105.419 69.2122C105.791 68.8404 106 68.336 106 67.8102V57.1033H14Z" fill="#474748"/>
<path d="M18.7585 61.8618H25.1034V65.0342H18.7585V61.8618Z" fill="#FFF5F1"/>
<path d="M28.2759 61.8618H42.5517V65.0342H28.2759V61.8618Z" fill="#FFF5F1"/>
<path d="M45.7241 61.8618H48.8965V65.0342H45.7241V61.8618Z" fill="#FFF5F1"/>
<path d="M52.0688 61.8618H55.2413V65.0342H52.0688V61.8618Z" fill="#FFF5F1"/>
<path d="M29.8618 46.0002V20.6208L55.2411 33.3105L29.8618 46.0002Z" fill="#E97522"/>
<path d="M96.4829 52.345H67.9312V20.6208C67.9312 16.8346 69.4352 13.2035 72.1125 10.5263C74.7897 7.84903 78.4208 6.34497 82.207 6.34497C85.9932 6.34497 89.6243 7.84903 92.3016 10.5263C94.9788 13.2035 96.4829 16.8346 96.4829 20.6208V52.345Z" fill="#635C5C"/>
<path d="M99.6016 69.793C99.6373 69.2827 99.6551 68.754 99.6551 68.2068C99.6551 56.8178 94.8965 39.655 82.2068 39.655C69.5172 39.655 64.7585 56.8178 64.7585 68.2068C64.7585 68.754 64.7764 69.2827 64.8121 69.793H99.6016Z" fill="#89C3E8"/>
<path d="M86.5413 40.3948L86.9657 41.2414L82.207 49.1724L88.5519 53.9311L91.5042 43.6009C90.1049 42.1813 88.4106 41.0868 86.5413 40.3948Z" fill="white"/>
<path d="M72.9099 43.6009L75.8622 53.9311L82.2071 49.1724L77.4484 41.2414L77.8728 40.3948C76.0035 41.0868 74.3092 42.1813 72.9099 43.6009Z" fill="white"/>
<path d="M69.2554 48.7759H69.1722C66.0751 54.625 64.7585 62.215 64.7585 68.2069C64.7585 68.7542 64.7764 69.2829 64.8121 69.7931H74.7259L71.2005 50.4037C71.1176 49.9479 70.8776 49.5355 70.5223 49.2381C70.167 48.9407 69.7188 48.7772 69.2554 48.7759Z" fill="#6DB8E8"/>
<path d="M79.0349 33.3103H85.3798L86.966 41.2413L82.2074 49.1724L77.4487 41.2413L79.0349 33.3103Z" fill="#FFC2BF"/>
<path d="M85.3789 33.3103H79.034L78.0645 38.1601L78.3301 38.3187C79.5011 39.0213 80.8409 39.3924 82.2064 39.3924C83.572 39.3924 84.9118 39.0213 86.0827 38.3187L86.3484 38.1601L85.3789 33.3103Z" fill="#E6B8B8"/>
<path d="M75.8621 22.2069C77.8246 22.2075 79.7394 21.6014 81.3441 20.4716C82.9488 19.3418 84.165 17.7436 84.8261 15.8958C86.2852 16.0528 87.6347 16.7436 88.6152 17.8354C89.5957 18.9272 90.1381 20.3429 90.1379 21.8103V29.4796C90.138 30.1644 89.9606 30.8375 89.6232 31.4334C89.2858 32.0294 88.7999 32.5277 88.2127 32.8801L84.2472 35.2594C83.6309 35.6292 82.9256 35.8245 82.2069 35.8245C81.4882 35.8245 80.783 35.6292 80.1667 35.2594L76.2011 32.8801C75.6139 32.5277 75.128 32.0294 74.7906 31.4334C74.4532 30.8375 74.2759 30.1644 74.2759 29.4796V22.2069H75.8621Z" fill="#FFCFCD"/>
<path d="M50.4824 44.4138H63.9652C65.0169 44.4138 66.0255 44.8316 66.7692 45.5753C67.5129 46.319 67.9307 47.3276 67.9307 48.3793V52.3449H58.4135C56.31 52.3449 54.2927 51.5093 52.8054 50.0219C51.318 48.5345 50.4824 46.5173 50.4824 44.4138Z" fill="#FFC2BF"/>
<path d="M67.9313 52.345H61.5864V65.8277C61.5864 66.8794 62.0042 67.8881 62.7479 68.6318C63.4916 69.3755 64.5002 69.7932 65.5519 69.7932H71.1037L67.9313 52.345Z" fill="#89C3E8"/>
<defs>
<filter id="filter0_d_13511_2567" x="-1.03297" y="11.1033" width="122.066" height="93.7666" filterUnits="userSpaceOnUse" color-interpolation-filters="sRGB">
<feFlood flood-opacity="0" result="BackgroundImageFix"/>
<feColorMatrix in="SourceAlpha" type="matrix" values="0 0 0 0 0 0 0 0 0 0 0 0 0 0 0 0 0 0 127 0" result="hardAlpha"/>
<feOffset dy="20.044"/>
<feGaussianBlur stdDeviation="7.51648"/>
<feComposite in2="hardAlpha" operator="out"/>
<feColorMatrix type="matrix" values="0 0 0 0 0.222083 0 0 0 0 0.291442 0 0 0 0 0.341667 0 0 0 0.15 0"/>
<feBlend mode="normal" in2="BackgroundImageFix" result="effect1_dropShadow_13511_2567"/>
<feBlend mode="normal" in="SourceGraphic" in2="effect1_dropShadow_13511_2567" result="shape"/>
</filter>
</defs>
</svg>
