<svg width="84" height="112" viewBox="0 0 84 112" fill="none" xmlns="http://www.w3.org/2000/svg">
<path d="M45.5084 49.1309H75.8325L83.9995 85.2233V87.5558H67.6729L60.6705 71.2499L43.1792 112L31.511 108.512L45.5084 49.1309Z" fill="#434343"/>
<path d="M73.4964 57.2765H77.6714L75.8329 49.1309H68.8379V52.6187C68.8379 53.8528 69.3285 55.0364 70.2019 55.9097C71.0753 56.783 72.2602 57.2746 73.4964 57.2765Z" fill="#30302F"/>
<path d="M52.511 52.6187V49.1309H45.5087L43.5896 57.2765H47.8599C49.0948 57.2726 50.2778 56.7802 51.1496 55.9071C52.0215 55.034 52.511 53.8515 52.511 52.6187Z" fill="#585858"/>
<path d="M60.6709 49.1309V71.2499L63.0075 67.762V49.1309H60.6709Z" fill="#30302F"/>
<path d="M84 87.5557H60.6709V98.0339L72.3391 100.359L84 89.8809V87.5557Z" fill="#30302F"/>
<path d="M75.8341 44.4731H45.51V49.1309H75.8341V44.4731Z" fill="#E97522"/>
<path d="M54.841 44.4731H52.5117V49.1309H54.841V44.4731Z" fill="#EE7E3B"/>
<path d="M71.1671 44.4731H68.8379V49.1309H71.1671V44.4731Z" fill="#EE7E3B"/>
<path d="M64.3399 44.4731H59.6741V49.1309H64.3399V44.4731Z" fill="#D7E5ED"/>
<path d="M65.4396 29.754L55.8076 20.1094L45.7582 18.2887C45.1775 18.1762 44.5756 18.285 44.0712 18.5936C43.5668 18.9022 43.1966 19.3882 43.0334 19.9558C41.9567 23.9117 37.9062 26.7999 33.0865 26.7999C28.2669 26.7999 24.2383 23.8312 23.1543 19.9485C22.9868 19.3836 22.6156 18.9007 22.1125 18.5928C21.6093 18.285 21.0098 18.174 20.4295 18.2814L10.3654 20.1094L0.704179 29.754C0.480935 29.9768 0.303842 30.2412 0.183016 30.5323C0.0621902 30.8234 0 31.1353 0 31.4504C0 31.7655 0.0621902 32.0775 0.183016 32.3686C0.303842 32.6596 0.480935 32.9241 0.704179 33.1468L6.39544 38.8283C6.61855 39.0512 6.88347 39.228 7.17504 39.3486C7.46662 39.4692 7.77915 39.5313 8.09477 39.5313C8.41039 39.5313 8.72291 39.4692 9.01449 39.3486C9.30607 39.228 9.57098 39.0512 9.79409 38.8283L12.6361 35.9839V74.5478H44.4471L53.537 65.5101V35.9839L56.379 38.8283C56.6021 39.0512 56.867 39.228 57.1586 39.3486C57.4501 39.4692 57.7627 39.5313 58.0783 39.5313C58.3939 39.5313 58.7064 39.4692 58.998 39.3486C59.2896 39.228 59.5545 39.0512 59.7776 38.8283L65.4396 33.1468C65.6628 32.9241 65.8399 32.6596 65.9607 32.3686C66.0816 32.0775 66.1438 31.7655 66.1438 31.4504C66.1438 31.1353 66.0816 30.8234 65.9607 30.5323C65.8399 30.2412 65.6628 29.9768 65.4396 29.754Z" fill="#83BCDC"/>
<path d="M44.4468 74.5475L53.5367 65.5098H46.3951C45.8745 65.5098 45.3752 65.7162 45.0071 66.0837C44.6389 66.4512 44.4321 66.9497 44.4321 67.4694L44.4468 74.5475Z" fill="#6DB8E8"/>
<path d="M20.7589 20.3507C22.1066 25.1474 27.0728 28.7961 33.0643 28.7961C39.0559 28.7961 44.0513 25.2279 45.3771 20.358C45.4927 19.9501 45.698 19.573 45.9781 19.2542C46.2581 18.9355 46.6058 18.6831 46.9958 18.5154L45.736 18.2887C45.1553 18.1762 44.5534 18.285 44.049 18.5936C43.5446 18.9022 43.1744 19.3882 43.0112 19.9558C41.9345 23.9117 37.884 26.7999 33.0643 26.7999C28.2447 26.7999 24.2381 23.8312 23.154 19.9485C22.9865 19.3836 22.6154 18.9007 22.1122 18.5928C21.6091 18.285 21.0095 18.174 20.4293 18.2814L19.1621 18.5154C19.5484 18.6832 19.8923 18.9351 20.1686 19.2526C20.4448 19.5702 20.6465 19.9453 20.7589 20.3507Z" fill="#474748"/>
<path d="M33.0875 55.9164C38.3545 55.9164 42.6242 51.654 42.6242 46.3961C42.6242 41.1381 38.3545 36.8757 33.0875 36.8757C27.8205 36.8757 23.5508 41.1381 23.5508 46.3961C23.5508 51.654 27.8205 55.9164 33.0875 55.9164Z" fill="white"/>
<path d="M33.0864 53.2112C36.8566 53.2112 39.9129 50.1601 39.9129 46.3964C39.9129 42.6327 36.8566 39.5815 33.0864 39.5815C29.3161 39.5815 26.2598 42.6327 26.2598 46.3964C26.2598 50.1601 29.3161 53.2112 33.0864 53.2112Z" fill="#ED6E24"/>
<path d="M30.5526 9.73354H24.019C23.8285 9.73225 23.6401 9.77362 23.4677 9.85461C23.2953 9.93559 23.1433 10.0541 23.0229 10.2015C22.9008 10.3495 22.8131 10.5226 22.7663 10.7085C22.7194 10.8944 22.7145 11.0884 22.7519 11.2764L23.3159 14.1062C23.4367 14.6956 23.7594 15.2246 24.2286 15.6023C24.6978 15.9799 25.2842 16.1826 25.8868 16.1755H28.7508C29.3475 16.1755 29.9259 15.9694 30.3878 15.5923C30.8497 15.2151 31.1668 14.6901 31.2851 14.1062L31.8564 11.2764C31.8938 11.0863 31.8879 10.8902 31.8392 10.7027C31.7905 10.5152 31.7003 10.3409 31.5751 10.1929C31.45 10.0448 31.2932 9.92664 31.1162 9.84714C30.9392 9.76765 30.7466 9.72882 30.5526 9.73354Z" fill="#30302F"/>
<path d="M25.0581 9.6897L30.6688 15.2907L31.8407 10.4282L29.3137 9.76282L25.0581 9.6897Z" fill="#4F4F4F"/>
<path d="M42.1703 9.73316H35.6367C35.4453 9.7326 35.2562 9.77457 35.0832 9.85604C34.9101 9.9375 34.7573 10.0564 34.636 10.2041C34.5147 10.3518 34.4278 10.5247 34.3817 10.7101C34.3356 10.8955 34.3314 11.0888 34.3695 11.276L34.9408 14.1058C35.0576 14.6891 35.3732 15.214 35.8339 15.5912C36.2946 15.9685 36.872 16.1748 37.4678 16.1751H40.3391C40.9346 16.1734 41.5113 15.9666 41.9717 15.5896C42.4321 15.2126 42.748 14.6884 42.8661 14.1058L43.4374 11.276C43.4741 11.089 43.469 10.8961 43.4223 10.7113C43.3757 10.5265 43.2887 10.3542 43.1677 10.2068C43.0466 10.0594 42.8944 9.94052 42.722 9.85864C42.5496 9.77677 42.3612 9.73392 42.1703 9.73316Z" fill="#30302F"/>
<path d="M36.9819 9.6897L42.5926 15.2907L43.7646 10.4282L41.2376 9.76282L36.9819 9.6897Z" fill="#4F4F4F"/>
<path d="M34.0595 11.927C33.7665 11.7547 33.4327 11.6638 33.0926 11.6638C32.7526 11.6638 32.4187 11.7547 32.1258 11.927C32.0525 11.9759 31.9699 12.0093 31.8832 12.0251C31.7965 12.0408 31.7075 12.0387 31.6217 12.0188C31.5358 11.9988 31.455 11.9616 31.3841 11.9092C31.3133 11.8569 31.2539 11.7906 31.2098 11.7144C31.1656 11.6383 31.1376 11.5539 31.1274 11.4665C31.1172 11.3791 31.125 11.2906 31.1505 11.2063C31.1759 11.1221 31.2184 11.0439 31.2753 10.9767C31.3322 10.9095 31.4022 10.8547 31.4812 10.8156C31.9694 10.5281 32.5258 10.3765 33.0926 10.3765C33.6594 10.3765 34.2159 10.5281 34.704 10.8156C34.783 10.8547 34.8531 10.9095 34.91 10.9767C34.9668 11.0439 35.0093 11.1221 35.0348 11.2063C35.0602 11.2906 35.0681 11.3791 35.0579 11.4665C35.0477 11.5539 35.0196 11.6383 34.9754 11.7144C34.9313 11.7906 34.872 11.8569 34.8011 11.9092C34.7303 11.9616 34.6494 11.9988 34.5636 12.0188C34.4777 12.0387 34.3887 12.0408 34.302 12.0251C34.2153 12.0093 34.1328 11.9759 34.0595 11.927Z" fill="#6E6E6E"/>
<path d="M30.5537 9.08991H24.0201H23.8809L25.5876 1.77783C25.6103 1.68368 25.6541 1.59587 25.7156 1.52095C25.7772 1.44604 25.8548 1.38596 25.9428 1.34519C26.0308 1.30442 26.127 1.28402 26.224 1.28549C26.321 1.28697 26.4164 1.3103 26.5032 1.35373L27.6458 1.92408C27.7958 1.98258 27.9624 1.98289 28.1126 1.92495C28.2629 1.86701 28.3859 1.75501 28.4576 1.61102C28.5293 1.46702 28.5443 1.30145 28.4998 1.14692C28.4553 0.992389 28.3545 0.860092 28.2171 0.776078L27.0745 0.205737C26.8148 0.0753845 26.529 0.00515553 26.2384 0.000273286C25.9477 -0.00460896 25.6597 0.0559807 25.3958 0.177537C25.1318 0.299093 24.8987 0.478487 24.7138 0.702378C24.5289 0.926269 24.3969 1.1889 24.3277 1.47073L22.3208 10.099C22.1011 10.4953 22.0309 10.957 22.123 11.4005L22.687 14.2303C22.8366 14.9656 23.2378 15.626 23.8219 16.0983C24.4059 16.5706 25.1363 16.8253 25.8879 16.8188H28.7518C29.4984 16.8185 30.2219 16.5607 30.7999 16.089C31.3779 15.6173 31.7748 14.9606 31.9234 14.2303L32.4801 11.4005C32.5356 11.118 32.5274 10.8267 32.456 10.5477C32.3845 10.2688 32.2518 10.0092 32.0673 9.78793C31.8828 9.56663 31.6512 9.38916 31.3894 9.26842C31.1276 9.14768 30.8421 9.08669 30.5537 9.08991ZM31.1836 11.1446L30.6196 13.9744C30.5318 14.4125 30.295 14.8069 29.9492 15.0908C29.6035 15.3746 29.1701 15.5304 28.7225 15.5318H25.8879C25.4399 15.5318 25.0058 15.3765 24.6598 15.0924C24.3138 14.8083 24.0773 14.4132 23.9908 13.9744L23.4268 11.1812L23.5586 10.6181C23.6194 10.5475 23.6947 10.4907 23.7794 10.4516C23.864 10.4125 23.9561 10.392 24.0494 10.3915H30.583C30.674 10.3963 30.7629 10.4204 30.8439 10.462C30.9249 10.5037 30.9962 10.5621 31.0529 10.6332C31.1097 10.7044 31.1507 10.7868 31.1732 10.8749C31.1957 10.9631 31.1993 11.055 31.1836 11.1446Z" fill="#6E6E6E"/>
<path d="M43.8678 10.1064L41.8536 1.47081C41.7835 1.18963 41.6509 0.927801 41.4656 0.704753C41.2803 0.481704 41.0471 0.303157 40.7833 0.182354C40.5194 0.06155 40.2317 0.00158925 39.9415 0.00691833C39.6513 0.0122474 39.366 0.0827301 39.1068 0.213138L37.9642 0.783479C37.8208 0.865202 37.7144 0.998711 37.6667 1.15648C37.619 1.31425 37.6338 1.48426 37.708 1.63147C37.7822 1.77867 37.9102 1.89184 38.0655 1.94766C38.2208 2.00348 38.3917 1.99769 38.5428 1.93147L39.6855 1.36113C39.7714 1.31895 39.8656 1.2962 39.9614 1.29449C40.0572 1.29279 40.1522 1.31217 40.2396 1.35126C40.327 1.39036 40.4047 1.4482 40.4672 1.52068C40.5296 1.59316 40.5754 1.67849 40.601 1.77061L42.3077 9.08268H42.1685H35.6349C35.22 9.08281 34.8162 9.21667 34.4836 9.46437C34.151 9.71206 33.9074 10.0603 33.7891 10.4574C33.5491 10.4003 33.3034 10.3708 33.0566 10.3696V11.6565C33.3076 11.6542 33.5565 11.7014 33.7891 11.7955L34.2725 14.2231C34.4209 14.9522 34.8168 15.6079 35.3932 16.0795C35.9697 16.551 36.6915 16.8096 37.4368 16.8115H40.3081C41.0534 16.8096 41.7752 16.551 42.3516 16.0795C42.9281 15.6079 43.3239 14.9522 43.4723 14.2231L44.0363 11.3933C44.1325 10.9578 44.0729 10.5025 43.8678 10.1064ZM42.2344 13.9745C42.1466 14.4126 41.9098 14.807 41.5641 15.0908C41.2183 15.3747 40.785 15.5305 40.3374 15.5319H37.4661C37.0185 15.5305 36.5851 15.3747 36.2394 15.0908C35.8937 14.807 35.6568 14.4126 35.569 13.9745L35.0197 11.2544C35.0231 11.2399 35.0231 11.2249 35.0197 11.2105V11.1447C35.0059 11.0542 35.012 10.9617 35.0373 10.8737C35.0627 10.7857 35.1068 10.7043 35.1666 10.6348C35.2264 10.5654 35.3005 10.5097 35.3839 10.4715C35.4672 10.4333 35.5579 10.4135 35.6496 10.4135H42.1832C42.2766 10.413 42.369 10.4331 42.4538 10.4723C42.5386 10.5114 42.6138 10.5688 42.6739 10.6402L42.8058 11.2032L42.2344 13.9745Z" fill="#6E6E6E"/>
<path d="M19.7705 95.4239C20.0528 95.8935 20.435 96.2956 20.89 96.6017C21.3449 96.9079 21.8616 97.1107 22.4037 97.1957C22.9457 97.2808 23.4998 97.2461 24.0269 97.0941C24.5541 96.9421 25.0414 96.6764 25.4545 96.3159C27.508 94.4573 29.6596 92.7096 31.9002 91.0805C32.5643 90.6195 33.1071 90.0051 33.482 89.2896C33.857 88.574 34.0531 87.7786 34.0536 86.9711C34.0536 86.0059 34.0976 86.7517 29.7907 71.6157C29.7763 71.5558 29.7498 71.4994 29.7129 71.45C29.676 71.4006 29.6294 71.3593 29.5759 71.3285C29.5224 71.2977 29.4632 71.2781 29.4019 71.2709C29.3406 71.2637 29.2785 71.2691 29.2193 71.2867L23.4621 72.9904L24.1946 90.9927L19.7705 95.4239Z" fill="#C8E2F1"/>
<path d="M25.0069 78.2912L31.2182 76.529L30.6981 74.7229L24.4795 76.4778L25.0069 78.2912Z" fill="#E97522"/>
<path d="M22.488 71.272L15.5662 73.312C15.4518 73.3452 15.3547 73.4212 15.2951 73.5241C15.2716 73.5783 15.2594 73.6368 15.2594 73.6959C15.2594 73.755 15.2716 73.8135 15.2951 73.8678L18.4301 85.5671C18.4547 85.6455 18.4574 85.7291 18.4381 85.8089C18.4187 85.8888 18.378 85.9619 18.3202 86.0204L13.5738 90.9415C12.9389 91.5953 12.5712 92.4621 12.5428 93.3723C12.5143 94.2824 12.8272 95.1704 13.42 95.8625C13.7415 96.2441 14.136 96.5579 14.5806 96.7852C15.0251 97.0126 15.5107 97.149 16.0088 97.1865C16.5069 97.2239 17.0074 97.1617 17.4811 97.0034C17.9547 96.8451 18.3919 96.5939 18.767 96.2646L22.0265 93.4861C23.0178 92.6476 24.0603 91.853 25.1541 91.1023C26.0119 90.509 26.6623 89.6626 27.0143 88.6819C27.3663 87.7011 27.4023 86.6351 27.1172 85.6329L23.0446 71.6303C23.0303 71.5703 23.0038 71.5139 22.9669 71.4646C22.93 71.4152 22.8834 71.3738 22.8299 71.343C22.7764 71.3122 22.7172 71.2926 22.6559 71.2855C22.5946 71.2783 22.5325 71.2836 22.4733 71.3012L22.488 71.272Z" fill="#DAF4FF"/>
<path d="M24.4873 76.529L16.5767 78.7738L16.0859 76.9604L23.9673 74.7229L24.4873 76.529Z" fill="#E97522"/>
</svg>
