<svg width="70" height="70" viewBox="0 0 70 70" fill="none" xmlns="http://www.w3.org/2000/svg">
<rect width="70" height="70" rx="10" fill="url(#paint0_linear_13626_42161)"/>
<path d="M32.3396 54.1514C32.3396 55.2559 33.235 56.1514 34.3396 56.1514C35.4442 56.1514 36.3396 55.2559 36.3396 54.1514H32.3396ZM35.7538 15.756C34.9728 14.975 33.7064 14.975 32.9254 15.756L20.1975 28.4839C19.4164 29.265 19.4164 30.5313 20.1975 31.3124C20.9785 32.0934 22.2448 32.0934 23.0259 31.3124L34.3396 19.9987L45.6533 31.3124C46.4344 32.0934 47.7007 32.0934 48.4817 31.3124C49.2628 30.5313 49.2628 29.265 48.4817 28.4839L35.7538 15.756ZM36.3396 54.1514V17.1702H32.3396V54.1514H36.3396Z" fill="white"/>
<defs>
<linearGradient id="paint0_linear_13626_42161" x1="35" y1="0" x2="35" y2="70" gradientUnits="userSpaceOnUse">
<stop stop-color="#F1924E"/>
<stop offset="1" stop-color="#ED7F32"/>
</linearGradient>
</defs>
</svg>
