<svg width="94" height="36" viewBox="0 0 94 36" fill="none" xmlns="http://www.w3.org/2000/svg">
<path d="M90.0233 30C91.6443 30 93.0493 31.2857 93.0493 33C93.0493 34.6071 91.7524 36 90.0233 36C88.4022 36 86.9973 34.7143 86.9973 33C87.1054 31.2857 88.4022 30 90.0233 30Z" fill="#E97522"/>
<path d="M68.3009 30C69.922 30 71.3269 31.2857 71.3269 33C71.3269 34.6071 70.03 36 68.3009 36C66.6798 36 65.2749 34.7143 65.2749 33C65.383 31.2857 66.6798 30 68.3009 30Z" fill="#E97522"/>
<path d="M46.5787 30C48.1998 30 49.6047 31.2857 49.6047 33C49.6047 34.6071 48.3079 36 46.5787 36C44.8496 36 43.5527 34.7143 43.5527 33C43.5527 31.2857 44.9577 30 46.5787 30Z" fill="#E97522"/>
<path d="M46.5787 15C48.1998 15 49.6047 16.2857 49.6047 18C49.6047 19.6071 48.3079 21 46.5787 21C44.8496 21 43.5527 19.7143 43.5527 18C43.5527 16.2857 44.9577 15 46.5787 15Z" fill="#E97522"/>
<path d="M24.8563 30C26.4774 30 27.8823 31.2857 27.8823 33C27.8823 34.6071 26.5855 36 24.8563 36C23.2352 36 21.8303 34.7143 21.8303 33C21.8303 31.2857 23.1272 30 24.8563 30Z" fill="#E97522"/>
<path d="M24.8563 15C26.4774 15 27.8823 16.2857 27.8823 18C27.8823 19.6071 26.5855 21 24.8563 21C23.2352 21 21.8303 19.7143 21.8303 18C21.8303 16.2857 23.1272 15 24.8563 15Z" fill="#E97522"/>
<path d="M24.8563 0C26.4774 0 27.8823 1.28571 27.8823 3C27.8823 4.60714 26.5855 6 24.8563 6C23.2352 6 21.8303 4.71429 21.8303 3C21.8303 1.28571 23.1272 0 24.8563 0Z" fill="#E97522"/>
<path d="M3.02599 30C4.64706 30 6.05198 31.2857 6.05198 33C6.05198 34.6071 4.75513 36 3.02599 36C1.40493 36 0 34.7143 0 33C0.108071 31.2857 1.40493 30 3.02599 30Z" fill="#E97522"/>
<path d="M3.02599 15C4.64706 15 6.05198 16.2857 6.05198 18C6.05198 19.6071 4.75513 21 3.02599 21C1.40493 21 0 19.7143 0 18C0.108071 16.2857 1.40493 15 3.02599 15Z" fill="#E97522"/>
</svg>
