<svg width="46" height="46" viewBox="0 0 46 46" fill="none" xmlns="http://www.w3.org/2000/svg">
<path fill-rule="evenodd" clip-rule="evenodd" d="M44.7863 7.93196C44.1929 6.42111 43.4107 5.13959 42.1296 3.85806C40.8484 2.57654 39.5673 1.79413 38.0569 1.20059C36.6004 0.634018 34.9282 0.256305 32.4738 0.134897C30.0193 0.0269795 29.2372 0 22.9933 0C16.7493 0 15.9672 0.0269795 13.5128 0.134897C11.0718 0.256305 9.39959 0.634018 7.92964 1.21408C6.41923 1.80762 5.13808 2.59003 3.85693 3.87155C2.57578 5.15308 1.79361 6.4346 1.20023 7.94546C0.633832 9.40235 0.25623 11.0751 0.134858 13.5167C0.0269716 15.9718 0 16.7543 0 23C0 29.2457 0.0269716 30.0282 0.134858 32.4833C0.25623 34.9384 0.633832 36.6111 1.21372 38.068C1.80709 39.5789 2.58927 40.8604 3.87042 42.1419C5.15157 43.4235 6.43272 44.2059 7.94312 44.7994C9.39959 45.366 11.0718 45.7572 13.5262 45.8651C15.9806 45.973 16.7628 46 23.0067 46C29.2507 46 30.0328 45.973 32.4872 45.8651C34.9282 45.7572 36.6004 45.366 38.0704 44.7994C39.5808 44.2059 40.8619 43.4235 42.1431 42.1419C43.4242 40.8604 44.2064 39.5789 44.7998 38.068C45.3662 36.6111 45.7573 34.9384 45.8651 32.4833C45.973 30.0282 46 29.2457 46 23C46 16.7543 45.973 15.9718 45.8651 13.5167C45.7438 11.0751 45.3527 9.40235 44.7863 7.93196ZM22.9933 34.817C16.4661 34.817 11.1797 29.529 11.1797 23C11.1797 16.471 16.4661 11.183 22.9933 11.183C29.5204 11.183 34.8068 16.471 34.8068 23C34.8068 29.529 29.5204 34.817 22.9933 34.817ZM35.2788 13.4897C33.7549 13.4897 32.5142 12.2487 32.5142 10.7243C32.5142 9.2 33.7549 7.95894 35.2788 7.95894C36.8027 7.95894 38.0434 9.2 38.0434 10.7243C38.0299 12.2487 36.8027 13.4897 35.2788 13.4897ZM30.6667 23C30.6667 27.2358 27.2413 30.6622 23.0067 30.6622C18.7722 30.6622 15.3468 27.2358 15.3468 23C15.3468 18.7642 18.7722 15.3378 23.0067 15.3378C27.2278 15.3378 30.6667 18.7642 30.6667 23Z" fill="#B5DFFF"/>
</svg>
