<svg width="132" height="35" viewBox="0 0 132 35" fill="none" xmlns="http://www.w3.org/2000/svg">
<path d="M5.06663 20.3464V29.7763H0V15.7435C0.449459 16.5378 1.0215 17.2914 1.69569 17.9839C2.47202 18.7782 3.30965 19.4299 4.229 19.9391C4.49459 20.0817 4.78061 20.2242 5.06663 20.3464Z" fill="#303030"/>
<path d="M30.1546 24.7872C30.1546 27.5774 29.2353 29.94 27.3966 31.8137C25.5579 33.7078 23.2697 34.6447 20.5321 34.6447H12.4623V21.2433H17.6719V29.7567H20.5321C21.9009 29.7567 23.0246 29.3086 23.903 28.3921C24.7815 27.4756 25.2106 26.2739 25.2106 24.7668C25.2106 23.2597 24.7815 22.058 23.903 21.1415C23.045 20.225 21.9213 19.7769 20.5321 19.7769H9.60208C7.96768 19.7769 6.49672 19.4511 5.18921 18.779C5.10749 18.7382 5.00534 18.6975 4.92362 18.6364C4.12685 18.2087 3.4118 17.6384 2.73761 16.9459C2.26772 16.4775 1.87956 15.9683 1.53225 15.4388C0.572039 13.952 0.0612899 12.2412 0 10.3064V9.53243C0.0817198 6.90511 1.00107 4.68513 2.75804 2.89286C4.59674 0.998743 6.88489 0.0415039 9.60208 0.0415039H17.6719V13.4429H12.4623V4.92953H9.60208C8.23327 4.92953 7.10962 5.3776 6.23114 6.29411C5.35265 7.21062 4.92362 8.41226 4.92362 9.9194C4.92362 11.4265 5.35265 12.6282 6.23114 13.5447C7.08919 14.4612 8.21284 14.9093 9.60208 14.9093H20.5117C23.2493 14.9093 25.5374 15.8461 27.3761 17.7402C29.2353 19.6344 30.1546 21.9765 30.1546 24.7872Z" fill="#303030"/>
<path d="M50.6869 19.6947H54.4869V34.5828H50.6869V26.5583L47.0708 32.5462H46.6827L43.087 26.5787V34.5828H39.2666V19.6947H43.087L46.8665 26.0491L50.6869 19.6947Z" fill="#303030"/>
<path d="M49.2369 0H44.5789L39.6553 14.8881H43.8026L44.4359 12.7496H49.4004L50.0337 14.8881H54.1401L49.2369 0ZM45.4165 9.47056L46.9079 4.4196L48.4197 9.47056H45.4165Z" fill="#47A7E3"/>
<path d="M61.3307 0H55.2426V9.8779H59.1652V3.68639H61.3103C62.3522 3.68639 63.1899 4.03263 63.8436 4.7251C64.4974 5.41757 64.8243 6.31371 64.8243 7.45425C64.8243 8.59479 64.4974 9.49093 63.8436 10.1834C63.1899 10.8759 62.3522 11.2221 61.3103 11.2221H60.9221H59.1447H55.2222V14.9085H61.3103C63.3737 14.9085 65.0898 14.1957 66.4791 12.77C67.8683 11.3443 68.5629 9.5724 68.5629 7.47462C68.5629 5.35647 67.8683 3.58456 66.4791 2.17925C65.1103 0.712838 63.3942 0 61.3307 0Z" fill="#47A7E3"/>
<path d="M76.4285 0H70.3403V3.68639H74.2629H75.7951H76.4285C77.4704 3.68639 78.308 4.03263 78.9618 4.7251C79.6155 5.41757 79.9424 6.31371 79.9424 7.45425C79.9424 8.59479 79.6155 9.49093 78.9618 10.1834C78.308 10.8759 77.4704 11.2221 76.4285 11.2221H74.2833V5.01023H70.3608V14.8881H76.4489C78.5123 14.8881 80.2284 14.1753 81.6177 12.7496C83.0069 11.3239 83.7015 9.55203 83.7015 7.45425C83.7015 5.3361 83.0069 3.56419 81.6177 2.15888C80.208 0.712838 78.4919 0 76.4285 0Z" fill="#47A7E3"/>
<path d="M108.299 23.3811H111.997V34.5828H115.818V23.3811H119.495V19.6947H108.299V23.3811Z" fill="#303030"/>
<path d="M131.058 28.3302C130.792 27.7803 130.404 27.3322 129.894 26.986C129.362 26.6397 128.892 26.375 128.443 26.1917C127.994 26.0084 127.422 25.8047 126.686 25.601C125.685 25.2955 124.99 25.0511 124.643 24.8067C124.296 24.5827 124.112 24.2975 124.112 23.9717C124.112 23.6865 124.234 23.4625 124.459 23.2792C124.684 23.0959 125.031 22.9941 125.501 22.9941C126.584 22.9941 127.36 23.544 127.83 24.6438L131.038 22.77C130.527 21.6702 129.791 20.8148 128.811 20.2445C127.851 19.6539 126.727 19.3688 125.481 19.3688C124.01 19.3688 122.763 19.7965 121.783 20.6519C120.802 21.5073 120.291 22.6071 120.291 23.992C120.291 25.2751 120.68 26.2731 121.476 26.986C122.273 27.6988 123.356 28.2487 124.725 28.656C125.685 28.9208 126.318 29.1245 126.604 29.2263C127.279 29.4911 127.605 29.8577 127.605 30.2854C127.605 30.9575 127.013 31.2834 125.848 31.2834C124.439 31.2834 123.458 30.6316 122.906 29.3078L119.638 31.2019C120.046 32.3424 120.782 33.2386 121.803 33.9107C122.845 34.5828 124.153 34.9086 125.726 34.9086C127.442 34.9086 128.811 34.5013 129.853 33.6663C130.895 32.8516 131.405 31.7111 131.405 30.2446C131.446 29.5114 131.324 28.8597 131.058 28.3302Z" fill="#303030"/>
<path d="M65.1515 19.6947H60.4934L55.5698 34.5828H59.7171L60.3504 32.4443H65.3149L65.9482 34.5828H70.0751L65.1515 19.6947ZM61.3311 29.1653L62.8225 24.1143L64.3343 29.1653H61.3311Z" fill="#303030"/>
<path d="M101.659 28.819H106.808V25.3159H101.659V23.2589H107.339V19.6947H97.8594V34.5828H107.441V31.0186H101.659V28.819Z" fill="#303030"/>
<path d="M96.5523 19.6947H92.2825L88.2169 25.9473V19.6947H84.3965V34.5828H88.2169V27.9229L92.5072 34.5828H96.7566L91.8126 26.9249L96.5523 19.6947Z" fill="#303030"/>
<path d="M79.9835 29.0838C80.7598 28.6357 81.3931 28.0451 81.8426 27.3119C82.2921 26.5583 82.5168 25.7436 82.5168 24.8475C82.5168 23.3607 82.006 22.1387 80.9641 21.1611C79.9426 20.1835 78.6555 19.6947 77.1437 19.6947H76.8985H76.3061H74.9781H72.4039H71.1577V34.5828H74.9781V29.7763H76.3469L78.9415 34.5828H83.0275L79.9835 29.0838ZM78.2469 26.0899C77.9405 26.3954 77.5727 26.5583 77.1028 26.5379H74.9781V25.5603V23.1978H76.3061H76.8985H77.0824C77.5523 23.1978 77.9405 23.3607 78.2265 23.6662C78.5329 23.9717 78.6759 24.3791 78.6759 24.8882C78.6964 25.377 78.5534 25.7844 78.2469 26.0899Z" fill="#303030"/>
</svg>
