<svg width="31" height="35" viewBox="0 0 31 35" fill="none" xmlns="http://www.w3.org/2000/svg">
<path d="M5.06663 20.3049V29.7347H0V15.702C0.449459 16.4963 1.0215 17.2499 1.69569 17.9424C2.47202 18.7367 3.30965 19.3884 4.229 19.8976C4.49459 20.0402 4.78061 20.1827 5.06663 20.3049Z" fill="#303030"/>
<path d="M30.1546 24.7457C30.1546 27.5359 29.2353 29.8985 27.3966 31.7722C25.5579 33.6663 23.2697 34.6032 20.5321 34.6032H12.4623V21.2018H17.6719V29.7152H20.5321C21.9009 29.7152 23.0246 29.2671 23.903 28.3506C24.7815 27.4341 25.2106 26.2324 25.2106 24.7253C25.2106 23.2181 24.7815 22.0165 23.903 21.1C23.045 20.1835 21.9213 19.7354 20.5321 19.7354H9.60208C7.96768 19.7354 6.49672 19.4096 5.18921 18.7375C5.10749 18.6967 5.00534 18.656 4.92362 18.5949C4.12685 18.1672 3.4118 17.5969 2.73761 16.9044C2.26772 16.436 1.87956 15.9268 1.53225 15.3973C0.572039 13.9105 0.0612899 12.1997 0 10.2649V9.49093C0.0817198 6.86361 1.00107 4.64363 2.75804 2.85135C4.59674 0.957239 6.88489 0 9.60208 0H17.6719V13.4014H12.4623V4.88803H9.60208C8.23327 4.88803 7.10962 5.3361 6.23114 6.25261C5.35265 7.16911 4.92362 8.37075 4.92362 9.8779C4.92362 11.385 5.35265 12.5867 6.23114 13.5032C7.08919 14.4197 8.21284 14.8678 9.60208 14.8678H20.5117C23.2493 14.8678 25.5374 15.8046 27.3761 17.6987C29.2353 19.5929 30.1546 21.935 30.1546 24.7457Z" fill="#303030"/>
</svg>
