<svg width="93" height="35" viewBox="0 0 93 35" fill="none" xmlns="http://www.w3.org/2000/svg">
<path d="M11.4203 19.6947H15.2203V34.5828H11.4203V26.5583L7.80423 32.5462H7.41607L3.8204 26.5787V34.5828H0V19.6947H3.8204L7.59994 26.0491L11.4203 19.6947Z" fill="#303030"/>
<path d="M9.97032 0H5.31229L0.388672 14.8881H4.53595L5.16928 12.7496H10.1338L10.7671 14.8881H14.8735L9.97032 0ZM6.14992 9.47056L7.6413 4.4196L9.15312 9.47056H6.14992Z" fill="#47A7E3"/>
<path d="M22.0641 0H15.976V9.8779H19.8986V3.68639H22.0437C23.0856 3.68639 23.9233 4.03263 24.577 4.7251C25.2308 5.41757 25.5576 6.31371 25.5576 7.45425C25.5576 8.59479 25.2308 9.49093 24.577 10.1834C23.9233 10.8759 23.0856 11.2221 22.0437 11.2221H21.6555H19.8781H15.9556V14.9085H22.0437C24.1071 14.9085 25.8232 14.1957 27.2125 12.77C28.6017 11.3443 29.2963 9.5724 29.2963 7.47462C29.2963 5.35647 28.6017 3.58456 27.2125 2.17925C25.8437 0.712838 24.1276 0 22.0641 0Z" fill="#47A7E3"/>
<path d="M37.1619 0H31.0737V3.68639H34.9963H36.5285H37.1619C38.2038 3.68639 39.0414 4.03263 39.6952 4.7251C40.3489 5.41757 40.6758 6.31371 40.6758 7.45425C40.6758 8.59479 40.3489 9.49093 39.6952 10.1834C39.0414 10.8759 38.2038 11.2221 37.1619 11.2221H35.0167V5.01023H31.0942V14.8881H37.1823C39.2457 14.8881 40.9618 14.1753 42.3511 12.7496C43.7403 11.3239 44.4349 9.55203 44.4349 7.45425C44.4349 5.3361 43.7403 3.56419 42.3511 2.15888C40.9414 0.712838 39.2253 0 37.1619 0Z" fill="#47A7E3"/>
<path d="M69.0327 23.3811H72.7305V34.5828H76.551V23.3811H80.2283V19.6947H69.0327V23.3811Z" fill="#303030"/>
<path d="M91.7914 28.3302C91.5259 27.7803 91.1377 27.3322 90.6269 26.986C90.0958 26.6397 89.6259 26.375 89.1764 26.1917C88.727 26.0084 88.1549 25.8047 87.4194 25.601C86.4184 25.2955 85.7237 25.0511 85.3764 24.8067C85.0291 24.5827 84.8453 24.2975 84.8453 23.9717C84.8453 23.6865 84.9678 23.4625 85.1926 23.2792C85.4173 23.0959 85.7646 22.9941 86.2345 22.9941C87.3173 22.9941 88.0936 23.544 88.5635 24.6438L91.771 22.77C91.2603 21.6702 90.5248 20.8148 89.5442 20.2445C88.5839 19.6539 87.4603 19.3688 86.2141 19.3688C84.7431 19.3688 83.4969 19.7965 82.5162 20.6519C81.5356 21.5073 81.0249 22.6071 81.0249 23.992C81.0249 25.2751 81.413 26.2731 82.2098 26.986C83.0066 27.6988 84.0894 28.2487 85.4582 28.656C86.4184 28.9208 87.0517 29.1245 87.3377 29.2263C88.0119 29.4911 88.3388 29.8577 88.3388 30.2854C88.3388 30.9575 87.7463 31.2834 86.5818 31.2834C85.1721 31.2834 84.1915 30.6316 83.6399 29.3078L80.3711 31.2019C80.7797 32.3424 81.5152 33.2386 82.5367 33.9107C83.5786 34.5828 84.8861 34.9086 86.4592 34.9086C88.1753 34.9086 89.5441 34.5013 90.5861 33.6663C91.628 32.8516 92.1388 31.7111 92.1388 30.2446C92.1796 29.5114 92.057 28.8597 91.7914 28.3302Z" fill="#303030"/>
<path d="M25.8849 19.6947H21.2268L16.3032 34.5828H20.4505L21.0838 32.4443H26.0483L26.6816 34.5828H30.8085L25.8849 19.6947ZM22.0645 29.1653L23.5559 24.1143L25.0677 29.1653H22.0645Z" fill="#303030"/>
<path d="M62.3927 28.819H67.5411V25.3159H62.3927V23.2589H68.0723V19.6947H58.5928V34.5828H68.1744V31.0186H62.3927V28.819Z" fill="#303030"/>
<path d="M57.2857 19.6947H53.0159L48.9503 25.9473V19.6947H45.1299V34.5828H48.9503V27.9229L53.2406 34.5828H57.49L52.546 26.9249L57.2857 19.6947Z" fill="#303030"/>
<path d="M40.7169 29.0838C41.4932 28.6357 42.1265 28.0451 42.576 27.3119C43.0254 26.5583 43.2502 25.7436 43.2502 24.8475C43.2502 23.3607 42.7394 22.1387 41.6975 21.1611C40.676 20.1835 39.3889 19.6947 37.8771 19.6947H37.6319H37.0395H35.7115H33.1373H31.8911V34.5828H35.7115V29.7763H37.0803L39.6749 34.5828H43.7609L40.7169 29.0838ZM38.9803 26.0899C38.6739 26.3954 38.3061 26.5583 37.8362 26.5379H35.7115V25.5603V23.1978H37.0395H37.6319H37.8158C38.2857 23.1978 38.6739 23.3607 38.9599 23.6662C39.2663 23.9717 39.4093 24.3791 39.4093 24.8882C39.4298 25.377 39.2868 25.7844 38.9803 26.0899Z" fill="#303030"/>
</svg>
