<svg width="51" height="39" viewBox="0 0 51 39" fill="none" xmlns="http://www.w3.org/2000/svg">
<path fill-rule="evenodd" clip-rule="evenodd" d="M50.9761 2.74442C50.8489 4.43601 49.7992 10.3492 48.7655 16.7332L45.5054 35.6791C45.5054 35.6791 45.2509 38.4592 43.0245 38.9299C40.8139 39.4153 37.1562 37.2383 36.5041 36.7529C35.9793 36.3851 26.7236 30.9573 23.3362 28.3096C22.4297 27.5888 21.3801 26.1326 23.4635 24.4557C28.1549 20.4694 33.7688 15.527 37.1562 12.3939C38.7147 10.9523 40.2891 7.56914 33.7688 11.6731L15.3846 23.1318C15.3846 23.1318 13.3013 24.338 9.38907 23.2495C5.47687 22.161 0.912639 20.7195 0.912639 20.7195C0.912639 20.7195 -2.2203 18.9102 3.12319 16.9833L33.5143 5.40684C36.52 4.20066 46.6822 0.346754 46.6822 0.346754C46.6822 0.346754 51.3737 -1.34484 50.9761 2.74442Z" fill="#B5DFFF"/>
</svg>
